<?xml version="1.0" encoding="UTF-8"?>
<!DOCTYPE svg PUBLIC "-//W3C//DTD SVG 1.1//EN" "http://www.w3.org/Graphics/SVG/1.1/DTD/svg11.dtd">
<svg xmlns="http://www.w3.org/2000/svg" version="1.1" width="2000px" height="2000px" style="shape-rendering:geometricPrecision; text-rendering:geometricPrecision; image-rendering:optimizeQuality; fill-rule:evenodd; clip-rule:evenodd" xmlns:xlink="http://www.w3.org/1999/xlink">
<g><path style="opacity:0.999" fill="#0063ff" d="M 1132.5,248.5 C 1150.03,250.877 1157.53,260.877 1155,278.5C 1133.06,382.087 1110.89,485.587 1088.5,589C 1191.91,572.694 1295.58,571.36 1399.5,585C 1472.97,595.157 1542.63,617.157 1608.5,651C 1758.35,734.204 1820.51,861.037 1795,1031.5C 1781.88,1095.52 1758.55,1155.52 1725,1211.5C 1687.24,1274.28 1642.24,1331.61 1590,1383.5C 1498.54,1472.47 1396.38,1546.64 1283.5,1606C 1152.25,1675.36 1013.58,1723.53 867.5,1750.5C 851.5,1748 844.333,1738.66 846,1722.5C 868.398,1618.17 890.398,1513.84 912,1409.5C 806.71,1426.7 701.21,1427.87 595.5,1413C 531.783,1403.54 470.783,1385.2 412.5,1358C 361.585,1333.46 317.085,1300.29 279,1258.5C 218.827,1186.97 192.494,1104.3 200,1010.5C 205.28,954.714 219.613,901.38 243,850.5C 269.396,793.996 302.062,741.663 341,693.5C 396.421,626.408 458.588,566.574 527.5,514C 708.298,379.401 909.965,290.901 1132.5,248.5 Z"/></g>
</svg>
