<svg xmlns="http://www.w3.org/2000/svg" width="352.012" height="279.235" viewBox="0 0 352.012 279.235">
  <defs>
    <clipPath id="clip-path">
      <rect id="사각형_906" width="352.012" height="279.235" fill="#ff681b"/>
    </clipPath>
  </defs>
  <g id="그룹_2013" transform="translate(36 -15)">
    <g id="그룹_1234" transform="translate(-36 15)" clip-path="url(#clip-path)">
      <path id="패스_183" d="M168.051,233c-39.278-20.633-80.3-50.465-108.388-77.065V99.252c0-5.966,1.74-9.2,6.463-12.678l56.431-42.51c55.188,17.9,128.773,63.889,170.288,104.659v76.319A7.568,7.568,0,0,1,284.891,233Zm-1.243,5.469c49.968,26.6,96.7,40.77,130.761,40.77,34.555,0,54.442-14.667,54.442-40.273,0-25.108-19.888-58.42-54.194-92.229V96.766c0-5.966-1.74-9.2-6.464-12.678L183.464,2.8c-4.723-3.729-9.7-3.729-14.419,0l-47.482,35.8C96.455,30.142,73.087,25.916,54.194,25.916,19.639,25.916,0,40.583,0,65.94c0,25.108,20.385,58.42,54.691,92.229v72.341a7.568,7.568,0,0,0,7.955,7.955Z" transform="translate(0 0)" fill="#ff681b"/>
    </g>
  </g>
</svg>
