<?xml version="1.0" encoding="UTF-8"?>
<!DOCTYPE svg PUBLIC "-//W3C//DTD SVG 1.1//EN" "http://www.w3.org/Graphics/SVG/1.1/DTD/svg11.dtd">
<svg xmlns="http://www.w3.org/2000/svg" version="1.1" width="308px" height="309px" style="shape-rendering:geometricPrecision; text-rendering:geometricPrecision; image-rendering:optimizeQuality; fill-rule:evenodd; clip-rule:evenodd" xmlns:xlink="http://www.w3.org/1999/xlink">
<g><path style="opacity:1" fill="#fdfdfd" d="M -0.5,-0.5 C 102.167,-0.5 204.833,-0.5 307.5,-0.5C 307.5,11.1667 307.5,22.8333 307.5,34.5C 307.167,34.5 306.833,34.5 306.5,34.5C 306.483,30.4661 305.483,26.7994 303.5,23.5C 303.25,21.326 302.25,19.6594 300.5,18.5C 298.978,14.436 296.311,11.436 292.5,9.5C 288.929,5.8793 284.596,3.54596 279.5,2.5C 278.391,1.71003 277.058,1.21003 275.5,1C 193.833,0.333333 112.167,0.333333 30.5,1C 21.1908,3.31631 13.5241,8.14964 7.5,15.5C 7.5,15.8333 7.5,16.1667 7.5,16.5C 3.47057,21.5573 0.803902,27.224 -0.5,33.5C -0.5,22.1667 -0.5,10.8333 -0.5,-0.5 Z"/></g>
<g><path style="opacity:1" fill="#c4bebb" d="M 279.5,2.5 C 274.167,2.16667 268.833,1.83333 263.5,1.5C 228.833,1.5 194.167,1.5 159.5,1.5C 119.5,1.5 79.5,1.5 39.5,1.5C 32.8847,1.7947 26.5513,3.2947 20.5,6C 15.9898,9.02278 11.6565,12.1895 7.5,15.5C 13.5241,8.14964 21.1908,3.31631 30.5,1C 112.167,0.333333 193.833,0.333333 275.5,1C 277.058,1.21003 278.391,1.71003 279.5,2.5 Z"/></g>
<g><path style="opacity:1" fill="#f5b1ba" d="M 39.5,1.5 C 79.5,1.5 119.5,1.5 159.5,1.5C 183.432,2.04463 207.432,3.2113 231.5,5C 172.221,4.84714 112.887,5.18048 53.5,6C 56.8333,6.33333 60.1667,6.66667 63.5,7C 51.3546,5.77323 40.0213,8.10656 29.5,14C 26.1544,17.6711 22.1544,20.3378 17.5,22C 13.9532,22.3069 10.6199,23.1403 7.5,24.5C 7.78448,22.5853 7.45115,20.9187 6.5,19.5C 6.5,18.8333 6.83333,18.5 7.5,18.5C 9.40078,18.5668 11.2341,18.2335 13,17.5C 14.2613,17.7591 15.2613,18.4258 16,19.5C 21.1797,16.4105 26.3464,12.5772 31.5,8C 38.1667,7.33333 38.1667,6.66667 31.5,6C 34.2263,5.81844 36.8929,5.31844 39.5,4.5C 38.624,3.74917 37.624,3.24917 36.5,3C 37.7375,2.76791 38.7375,2.26791 39.5,1.5 Z"/></g>
<g><path style="opacity:1" fill="#f6c2c8" d="M 39.5,1.5 C 38.7375,2.26791 37.7375,2.76791 36.5,3C 37.624,3.24917 38.624,3.74917 39.5,4.5C 36.8929,5.31844 34.2263,5.81844 31.5,6C 38.1667,6.66667 38.1667,7.33333 31.5,8C 26.3464,12.5772 21.1797,16.4105 16,19.5C 15.2613,18.4258 14.2613,17.7591 13,17.5C 11.2341,18.2335 9.40078,18.5668 7.5,18.5C 7.5,17.8333 7.5,17.1667 7.5,16.5C 7.5,16.1667 7.5,15.8333 7.5,15.5C 11.6565,12.1895 15.9898,9.02278 20.5,6C 26.5513,3.2947 32.8847,1.7947 39.5,1.5 Z"/></g>
<g><path style="opacity:1" fill="#f5abb6" d="M 159.5,1.5 C 194.167,1.5 228.833,1.5 263.5,1.5C 263.5,2.83333 263.5,4.16667 263.5,5.5C 255.493,5.33362 247.493,5.50029 239.5,6C 239.833,6.33333 240.167,6.66667 240.5,7C 233.482,7.67548 226.482,7.50881 219.5,6.5C 164.82,8.03343 110.153,8.86677 55.5,9C 46.2253,9.09184 37.5586,11.4252 29.5,16C 27.9586,17.3712 26.6253,18.8712 25.5,20.5C 24.0222,20.238 22.6888,20.5713 21.5,21.5C 20.6872,22.8139 19.6872,23.9805 18.5,25C 14.1308,26.2666 10.2975,28.4333 7,31.5C 6.66667,31.1667 6.33333,30.8333 6,30.5C 5.66667,31.5 5.33333,32.5 5,33.5C 4.29044,32.0267 3.12377,31.3601 1.5,31.5C 3.19071,27.4591 4.85738,23.4591 6.5,19.5C 7.45115,20.9187 7.78448,22.5853 7.5,24.5C 10.6199,23.1403 13.9532,22.3069 17.5,22C 22.1544,20.3378 26.1544,17.6711 29.5,14C 40.0213,8.10656 51.3546,5.77323 63.5,7C 60.1667,6.66667 56.8333,6.33333 53.5,6C 112.887,5.18048 172.221,4.84714 231.5,5C 207.432,3.2113 183.432,2.04463 159.5,1.5 Z"/></g>
<g><path style="opacity:1" fill="#a58a8d" d="M 279.5,3.5 C 279.5,3.16667 279.5,2.83333 279.5,2.5C 284.596,3.54596 288.929,5.8793 292.5,9.5C 291.833,9.5 291.167,9.5 290.5,9.5C 287.992,7.07642 284.992,5.40975 281.5,4.5C 281.158,3.66175 280.492,3.32842 279.5,3.5 Z"/></g>
<g><path style="opacity:1" fill="#f3a4af" d="M 263.5,1.5 C 268.833,1.83333 274.167,2.16667 279.5,2.5C 279.5,2.83333 279.5,3.16667 279.5,3.5C 278.833,3.5 278.167,3.5 277.5,3.5C 275.473,3.33788 273.473,3.50454 271.5,4C 273.891,4.69137 273.891,5.69137 271.5,7C 268.475,7.13345 265.808,8.13345 263.5,10C 203.173,11.1442 142.84,11.8108 82.5,12C 68.8168,12.3463 55.1502,13.0129 41.5,14C 39.2774,14.5662 37.2774,15.3995 35.5,16.5C 34.1266,16.3433 32.7932,16.51 31.5,17C 29.5952,18.4213 27.5952,19.588 25.5,20.5C 26.6253,18.8712 27.9586,17.3712 29.5,16C 37.5586,11.4252 46.2253,9.09184 55.5,9C 110.153,8.86677 164.82,8.03343 219.5,6.5C 226.482,7.50881 233.482,7.67548 240.5,7C 240.167,6.66667 239.833,6.33333 239.5,6C 247.493,5.50029 255.493,5.33362 263.5,5.5C 263.5,4.16667 263.5,2.83333 263.5,1.5 Z"/></g>
<g><path style="opacity:1" fill="#f299a6" d="M 277.5,3.5 C 276.952,4.68849 276.619,5.85516 276.5,7C 272.678,9.83236 268.345,11.499 263.5,12C 236.803,12.1929 210.137,12.6929 183.5,13.5C 146.165,13.3333 108.832,13.5 71.5,14C 59.4391,14.1688 47.4391,15.0021 35.5,16.5C 37.2774,15.3995 39.2774,14.5662 41.5,14C 55.1502,13.0129 68.8168,12.3463 82.5,12C 142.84,11.8108 203.173,11.1442 263.5,10C 265.808,8.13345 268.475,7.13345 271.5,7C 273.891,5.69137 273.891,4.69137 271.5,4C 273.473,3.50454 275.473,3.33788 277.5,3.5 Z"/></g>
<g><path style="opacity:1" fill="#f08c9e" d="M 277.5,3.5 C 278.167,3.5 278.833,3.5 279.5,3.5C 280.492,3.32842 281.158,3.66175 281.5,4.5C 280.993,6.57548 279.993,8.90881 278.5,11.5C 277.183,13.1591 275.517,14.3257 273.5,15C 267.183,15.7652 260.849,16.2652 254.5,16.5C 225.5,16.5 196.5,16.5 167.5,16.5C 159.677,15.6708 151.677,15.1708 143.5,15C 157.006,14.831 170.34,14.331 183.5,13.5C 210.137,12.6929 236.803,12.1929 263.5,12C 268.345,11.499 272.678,9.83236 276.5,7C 276.619,5.85516 276.952,4.68849 277.5,3.5 Z"/></g>
<g><path style="opacity:1" fill="#f08f9a" d="M 183.5,13.5 C 170.34,14.331 157.006,14.831 143.5,15C 151.677,15.1708 159.677,15.6708 167.5,16.5C 126.832,16.3333 86.1653,16.5 45.5,17C 38.5388,16.9277 32.5388,19.0944 27.5,23.5C 21.9562,24.6884 18.4562,28.0217 17,33.5C 14.3416,37.1575 11.3416,40.4908 8,43.5C 6.22131,40.7236 5.22131,41.0569 5,44.5C 4.33333,43.1667 3.66667,43.1667 3,44.5C 2.81382,47.0356 2.31382,49.369 1.5,51.5C 1.5,44.8333 1.5,38.1667 1.5,31.5C 3.12377,31.3601 4.29044,32.0267 5,33.5C 5.33333,32.5 5.66667,31.5 6,30.5C 6.33333,30.8333 6.66667,31.1667 7,31.5C 10.2975,28.4333 14.1308,26.2666 18.5,25C 19.6872,23.9805 20.6872,22.8139 21.5,21.5C 22.6888,20.5713 24.0222,20.238 25.5,20.5C 27.5952,19.588 29.5952,18.4213 31.5,17C 32.7932,16.51 34.1266,16.3433 35.5,16.5C 47.4391,15.0021 59.4391,14.1688 71.5,14C 108.832,13.5 146.165,13.3333 183.5,13.5 Z"/></g>
<g><path style="opacity:1" fill="#ee8190" d="M 167.5,16.5 C 196.5,16.5 225.5,16.5 254.5,16.5C 191.5,17.5277 128.5,18.5277 65.5,19.5C 52.5645,18.8012 39.8978,20.1345 27.5,23.5C 32.5388,19.0944 38.5388,16.9277 45.5,17C 86.1653,16.5 126.832,16.3333 167.5,16.5 Z"/></g>
<g><path style="opacity:1" fill="#906c6e" d="M 292.5,10.5 C 292.5,10.1667 292.5,9.83333 292.5,9.5C 296.311,11.436 298.978,14.436 300.5,18.5C 300.167,18.5 299.833,18.5 299.5,18.5C 299.167,17.5 298.5,16.8333 297.5,16.5C 297.068,15.2905 296.401,14.2905 295.5,13.5C 294.833,12.1667 293.833,11.1667 292.5,10.5 Z"/></g>
<g><path style="opacity:1" fill="#ef758b" d="M 281.5,4.5 C 284.992,5.40975 287.992,7.07642 290.5,9.5C 289.504,9.41423 288.671,9.74756 288,10.5C 285.481,13.0246 283.314,15.858 281.5,19C 228.501,19.5 175.501,19.6667 122.5,19.5C 103.5,19.5 84.5,19.5 65.5,19.5C 128.5,18.5277 191.5,17.5277 254.5,16.5C 260.849,16.2652 267.183,15.7652 273.5,15C 275.517,14.3257 277.183,13.1591 278.5,11.5C 279.993,8.90881 280.993,6.57548 281.5,4.5 Z"/></g>
<g><path style="opacity:1" fill="#eb687f" d="M 290.5,9.5 C 291.167,9.5 291.833,9.5 292.5,9.5C 292.5,9.83333 292.5,10.1667 292.5,10.5C 289.287,13.2303 286.287,16.2303 283.5,19.5C 281.709,20.7638 279.709,21.4305 277.5,21.5C 242.847,21.6758 208.181,21.3425 173.5,20.5C 156.666,21.0018 140,21.6684 123.5,22.5C 122.167,22.5 120.833,22.5 119.5,22.5C 120.1,21.1001 121.1,20.1001 122.5,19.5C 175.501,19.6667 228.501,19.5 281.5,19C 283.314,15.858 285.481,13.0246 288,10.5C 288.671,9.74756 289.504,9.41423 290.5,9.5 Z"/></g>
<g><path style="opacity:1" fill="#7d6568" d="M 300.5,18.5 C 302.25,19.6594 303.25,21.326 303.5,23.5C 302.833,23.1667 302.167,22.8333 301.5,22.5C 301.167,21.1667 300.833,19.8333 300.5,18.5 Z"/></g>
<g><path style="opacity:1" fill="#ec5d78" d="M 292.5,10.5 C 293.833,11.1667 294.833,12.1667 295.5,13.5C 292.14,12.7904 290.307,14.1238 290,17.5C 287.843,20.3106 285.343,22.8106 282.5,25C 278.684,25.4008 275.017,24.7342 271.5,23C 264.508,22.5004 257.508,22.3337 250.5,22.5C 225.5,22.5 200.5,22.5 175.5,22.5C 158.167,22.5 140.833,22.5 123.5,22.5C 140,21.6684 156.666,21.0018 173.5,20.5C 208.181,21.3425 242.847,21.6758 277.5,21.5C 279.709,21.4305 281.709,20.7638 283.5,19.5C 286.287,16.2303 289.287,13.2303 292.5,10.5 Z"/></g>
<g><path style="opacity:1" fill="#e95467" d="M 119.5,22.5 C 120.833,22.5 122.167,22.5 123.5,22.5C 140.833,22.5 158.167,22.5 175.5,22.5C 162.34,23.331 149.006,23.831 135.5,24C 141.833,24.3333 148.167,24.6667 154.5,25C 142.197,26.2168 129.863,26.7168 117.5,26.5C 115.942,30.6081 115.276,34.9414 115.5,39.5C 114.167,39.5 112.833,39.5 111.5,39.5C 111.5,36.8333 111.5,34.1667 111.5,31.5C 106.825,30.8688 104.158,32.8688 103.5,37.5C 99.9386,37.3648 97.1052,38.6981 95,41.5C 90.6233,40.6972 88.4567,42.6972 88.5,47.5C 82.6246,46.8682 77.2913,48.2015 72.5,51.5C 71.5713,52.6888 71.238,54.0222 71.5,55.5C 70.0222,55.238 68.6888,55.5713 67.5,56.5C 66.8333,57.8333 65.8333,58.8333 64.5,59.5C 61.5063,58.2515 58.5063,58.2515 55.5,59.5C 51.7413,62.0262 48.0747,64.6928 44.5,67.5C 43.7542,68.7362 43.4208,70.0695 43.5,71.5C 42.1667,71.5 40.8333,71.5 39.5,71.5C 38.8182,74.7086 37.1516,77.3752 34.5,79.5C 32.678,75.8979 31.678,75.8979 31.5,79.5C 28.1116,79.1878 25.6116,80.5211 24,83.5C 23.7996,81.6803 22.9663,80.347 21.5,79.5C 20.9401,64.39 21.7735,49.39 24,34.5C 26.2986,28.8748 30.4653,25.3748 36.5,24C 64.1543,22.8216 91.821,22.3216 119.5,22.5 Z"/></g>
<g><path style="opacity:1" fill="#e94e68" d="M 175.5,22.5 C 200.5,22.5 225.5,22.5 250.5,22.5C 250.5,23.5 250.5,24.5 250.5,25.5C 239.226,26.1163 227.893,27.4496 216.5,29.5C 213.561,28.7934 213.061,27.46 215,25.5C 215.725,27.158 216.892,27.658 218.5,27C 218.167,26.6667 217.833,26.3333 217.5,26C 218.672,25.5814 219.672,24.9147 220.5,24C 216.459,23.1735 212.459,23.3401 208.5,24.5C 210.679,26.7172 210.679,28.7172 208.5,30.5C 206.172,31.724 203.839,31.724 201.5,30.5C 200.15,31.9501 198.484,32.6168 196.5,32.5C 196.5,34.8333 196.5,37.1667 196.5,39.5C 191.795,39.0348 187.295,39.7014 183,41.5C 180.736,40.1393 178.57,40.306 176.5,42C 178.394,43.0793 178.727,44.4126 177.5,46C 173.915,47.6753 170.248,47.842 166.5,46.5C 164.5,41.1667 162.5,41.1667 160.5,46.5C 161.313,47.8139 162.313,48.9805 163.5,50C 162.833,50.6667 162.167,51.3333 161.5,52C 159.965,51.3391 158.298,51.0058 156.5,51C 155.743,52.5122 154.743,53.8455 153.5,55C 154.624,55.2492 155.624,55.7492 156.5,56.5C 156,56.8333 155.5,57.1667 155,57.5C 153.205,57.2396 151.371,56.9062 149.5,56.5C 148.167,51.1667 146.833,51.1667 145.5,56.5C 147.831,58.7997 147.664,60.4663 145,61.5C 144.156,66.6737 140.989,69.007 135.5,68.5C 135.5,69.5 135.5,70.5 135.5,71.5C 130.164,70.1845 127.497,72.1845 127.5,77.5C 123.486,77.3345 119.486,77.5012 115.5,78C 112.156,80.6772 109.156,83.6772 106.5,87C 103.5,87.6667 100.5,87.6667 97.5,87C 96.1068,85.8289 95.2735,84.3289 95,82.5C 90.4584,85.1643 90.6251,87.1643 95.5,88.5C 95,89.5 94.5,90.5 94,91.5C 92.6667,90.1667 91.3333,90.1667 90,91.5C 88.2316,93.9124 87.0649,96.5791 86.5,99.5C 82.0381,99.3795 79.3714,97.0462 78.5,92.5C 77.2764,93.7662 75.9431,94.9328 74.5,96C 74.9574,96.414 75.2907,96.914 75.5,97.5C 67.6771,98.1667 60.0104,98.8334 52.5,99.5C 51.5488,103.028 51.3821,106.695 52,110.5C 50.6054,109.185 49.6054,109.519 49,111.5C 45.6585,110.757 43.1585,112.09 41.5,115.5C 45.9703,117.138 50.6369,117.971 55.5,118C 54.059,119.646 52.3924,119.813 50.5,118.5C 47.6742,118.824 45.1742,119.824 43,121.5C 41.5557,119.845 39.7224,119.178 37.5,119.5C 37.2965,121.39 37.9632,122.89 39.5,124C 38.09,124.368 37.09,125.201 36.5,126.5C 34.9547,127.452 33.288,127.785 31.5,127.5C 31.7989,125.396 31.4656,123.396 30.5,121.5C 29.8333,121.833 29.1667,122.167 28.5,122.5C 29.0231,125.803 28.3565,128.969 26.5,132C 26.7549,133.326 27.4216,134.326 28.5,135C 26.8659,135.494 25.1992,135.66 23.5,135.5C 23.6664,144.506 23.4998,153.506 23,162.5C 22.6667,162.167 22.3333,161.833 22,161.5C 21.8255,166.351 21.3255,171.018 20.5,175.5C 19.4066,151.712 19.4066,127.712 20.5,103.5C 20.1743,95.3159 20.5076,87.3159 21.5,79.5C 22.9663,80.347 23.7996,81.6803 24,83.5C 25.6116,80.5211 28.1116,79.1878 31.5,79.5C 31.678,75.8979 32.678,75.8979 34.5,79.5C 37.1516,77.3752 38.8182,74.7086 39.5,71.5C 40.8333,71.5 42.1667,71.5 43.5,71.5C 43.4208,70.0695 43.7542,68.7362 44.5,67.5C 48.0747,64.6928 51.7413,62.0262 55.5,59.5C 58.5063,58.2515 61.5063,58.2515 64.5,59.5C 65.8333,58.8333 66.8333,57.8333 67.5,56.5C 68.6888,55.5713 70.0222,55.238 71.5,55.5C 71.238,54.0222 71.5713,52.6888 72.5,51.5C 77.2913,48.2015 82.6246,46.8682 88.5,47.5C 88.4567,42.6972 90.6233,40.6972 95,41.5C 97.1052,38.6981 99.9386,37.3648 103.5,37.5C 104.158,32.8688 106.825,30.8688 111.5,31.5C 111.5,34.1667 111.5,36.8333 111.5,39.5C 112.833,39.5 114.167,39.5 115.5,39.5C 115.276,34.9414 115.942,30.6081 117.5,26.5C 129.863,26.7168 142.197,26.2168 154.5,25C 148.167,24.6667 141.833,24.3333 135.5,24C 149.006,23.831 162.34,23.331 175.5,22.5 Z"/></g>
<g><path style="opacity:1" fill="#eb6777" d="M 65.5,19.5 C 84.5,19.5 103.5,19.5 122.5,19.5C 121.1,20.1001 120.1,21.1001 119.5,22.5C 91.821,22.3216 64.1543,22.8216 36.5,24C 30.4653,25.3748 26.2986,28.8748 24,34.5C 21.7735,49.39 20.9401,64.39 21.5,79.5C 20.5076,87.3159 20.1743,95.3159 20.5,103.5C 19.7784,103.918 19.2784,104.584 19,105.5C 18.829,113.344 18.329,121.011 17.5,128.5C 17.5,120.5 17.5,112.5 17.5,104.5C 17.3334,86.4969 17.5001,68.4969 18,50.5C 18.9823,45.8742 19.8157,41.2076 20.5,36.5C 22.3767,33.0416 24.3767,29.7083 26.5,26.5C 26.5569,25.391 26.8902,24.391 27.5,23.5C 39.8978,20.1345 52.5645,18.8012 65.5,19.5 Z"/></g>
<g><path style="opacity:1" fill="#e84768" d="M 295.5,13.5 C 296.401,14.2905 297.068,15.2905 297.5,16.5C 296.226,17.1894 296.226,18.0228 297.5,19C 294.821,20.7643 292.154,22.431 289.5,24C 288.672,25.9923 287.339,27.4923 285.5,28.5C 281.69,28.4365 277.356,28.4365 272.5,28.5C 272.167,28.8333 271.833,29.1667 271.5,29.5C 272.376,30.2508 273.376,30.7508 274.5,31C 273.584,31.3742 272.75,31.8742 272,32.5C 271.503,34.8098 271.337,37.1432 271.5,39.5C 266.162,38.9979 260.828,38.8312 255.5,39C 253.227,41.2917 252.06,44.125 252,47.5C 251.275,48.0585 250.442,48.3918 249.5,48.5C 244.712,46.8762 240.212,47.2095 236,49.5C 235.667,47.8333 235.333,46.1667 235,44.5C 233.989,43.6634 232.822,43.33 231.5,43.5C 231.616,40.0897 229.95,38.7564 226.5,39.5C 225.095,43.3852 224.095,47.3852 223.5,51.5C 220.23,51.6787 218.563,53.512 218.5,57C 218.93,58.4341 219.764,59.6008 221,60.5C 221.667,59.1667 222.333,59.1667 223,60.5C 223.446,63.6616 222.946,66.6616 221.5,69.5C 219.396,69.2011 217.396,69.5344 215.5,70.5C 217.748,71.324 217.914,72.324 216,73.5C 214.546,79.4682 215.712,80.4682 219.5,76.5C 220.646,77.1449 221.646,77.9783 222.5,79C 218.817,80.8385 216.483,83.6718 215.5,87.5C 210.951,88.0752 207.118,86.7419 204,83.5C 203.51,82.2068 203.343,80.8734 203.5,79.5C 193.398,81.5013 193.065,84.3346 202.5,88C 200.9,89.815 198.9,90.9817 196.5,91.5C 195.571,92.6888 195.238,94.0222 195.5,95.5C 192.428,95.8174 189.428,95.4841 186.5,94.5C 184.839,91.9079 182.672,91.2412 180,92.5C 179.73,95.2241 179.23,97.8908 178.5,100.5C 177.675,101.386 176.675,101.719 175.5,101.5C 175.773,103.451 175.107,104.951 173.5,106C 173.833,106.333 174.167,106.667 174.5,107C 172.202,108.086 170.202,109.586 168.5,111.5C 167.271,114.199 167.271,116.865 168.5,119.5C 168.5,119.833 168.5,120.167 168.5,120.5C 166.565,119.85 164.565,119.517 162.5,119.5C 161.978,122.568 161.145,125.568 160,128.5C 157.695,127.061 155.862,127.561 154.5,130C 153.207,130.49 151.873,130.657 150.5,130.5C 150.281,129.325 150.614,128.325 151.5,127.5C 154.226,127.145 156.226,125.812 157.5,123.5C 155.5,122.167 153.5,120.833 151.5,119.5C 152.682,117.355 154.182,117.355 156,119.5C 157.136,116.904 157.969,114.237 158.5,111.5C 162.144,111.292 164.311,109.292 165,105.5C 165.172,102.174 165.005,98.8411 164.5,95.5C 161.813,95.3359 159.146,95.5026 156.5,96C 157.624,96.2492 158.624,96.7492 159.5,97.5C 150.009,98.1667 140.675,98.8334 131.5,99.5C 131.167,99.5 130.833,99.5 130.5,99.5C 129.828,98.7326 128.995,98.0659 128,97.5C 127.808,99.5767 127.308,101.577 126.5,103.5C 124.247,104.253 122.413,105.586 121,107.5C 120.667,106.5 120.333,105.5 120,104.5C 119.506,106.134 119.34,107.801 119.5,109.5C 115.633,109.474 114.966,110.641 117.5,113C 116.375,114.963 115.041,116.796 113.5,118.5C 116.472,121.39 116.139,123.724 112.5,125.5C 110.52,130.131 108.52,134.798 106.5,139.5C 105.522,139.023 104.689,138.357 104,137.5C 102.944,142.214 101.277,142.547 99,138.5C 98.0052,132.37 97.5052,126.036 97.5,119.5C 94.3479,119.047 91.8479,120.047 90,122.5C 89.5172,121.552 89.3505,120.552 89.5,119.5C 88.5,119.5 87.5,119.5 86.5,119.5C 85.6618,119.158 85.3284,118.492 85.5,117.5C 85.2179,114.125 84.2179,110.958 82.5,108C 83.4235,106.189 84.2569,106.355 85,108.5C 87.0226,106.987 86.8559,105.654 84.5,104.5C 87.1932,103.468 87.8598,101.802 86.5,99.5C 87.0649,96.5791 88.2316,93.9124 90,91.5C 91.3333,90.1667 92.6667,90.1667 94,91.5C 94.5,90.5 95,89.5 95.5,88.5C 90.6251,87.1643 90.4584,85.1643 95,82.5C 95.2735,84.3289 96.1068,85.8289 97.5,87C 100.5,87.6667 103.5,87.6667 106.5,87C 109.156,83.6772 112.156,80.6772 115.5,78C 119.486,77.5012 123.486,77.3345 127.5,77.5C 127.497,72.1845 130.164,70.1845 135.5,71.5C 135.5,70.5 135.5,69.5 135.5,68.5C 140.989,69.007 144.156,66.6737 145,61.5C 147.664,60.4663 147.831,58.7997 145.5,56.5C 146.833,51.1667 148.167,51.1667 149.5,56.5C 151.371,56.9062 153.205,57.2396 155,57.5C 155.5,57.1667 156,56.8333 156.5,56.5C 155.624,55.7492 154.624,55.2492 153.5,55C 154.743,53.8455 155.743,52.5122 156.5,51C 158.298,51.0058 159.965,51.3391 161.5,52C 162.167,51.3333 162.833,50.6667 163.5,50C 162.313,48.9805 161.313,47.8139 160.5,46.5C 162.5,41.1667 164.5,41.1667 166.5,46.5C 170.248,47.842 173.915,47.6753 177.5,46C 178.727,44.4126 178.394,43.0793 176.5,42C 178.57,40.306 180.736,40.1393 183,41.5C 187.295,39.7014 191.795,39.0348 196.5,39.5C 196.5,37.1667 196.5,34.8333 196.5,32.5C 198.484,32.6168 200.15,31.9501 201.5,30.5C 203.839,31.724 206.172,31.724 208.5,30.5C 210.679,28.7172 210.679,26.7172 208.5,24.5C 212.459,23.3401 216.459,23.1735 220.5,24C 219.672,24.9147 218.672,25.5814 217.5,26C 217.833,26.3333 218.167,26.6667 218.5,27C 216.892,27.658 215.725,27.158 215,25.5C 213.061,27.46 213.561,28.7934 216.5,29.5C 227.893,27.4496 239.226,26.1163 250.5,25.5C 250.5,24.5 250.5,23.5 250.5,22.5C 257.508,22.3337 264.508,22.5004 271.5,23C 275.017,24.7342 278.684,25.4008 282.5,25C 285.343,22.8106 287.843,20.3106 290,17.5C 290.307,14.1238 292.14,12.7904 295.5,13.5 Z"/></g>
<g><path style="opacity:1" fill="#e74368" d="M 285.5,28.5 C 285.318,30.5914 285.652,32.5914 286.5,34.5C 284.935,38.6868 284.268,43.0202 284.5,47.5C 284.279,50.0972 283.779,50.0972 283,47.5C 282.667,52.8333 282.333,58.1667 282,63.5C 280.351,66.8765 278.351,67.2099 276,64.5C 272.525,66.2159 272.025,68.3826 274.5,71C 273.552,71.4828 272.552,71.6495 271.5,71.5C 271.392,66.8634 270.392,66.53 268.5,70.5C 270.03,73.5325 270.363,76.5325 269.5,79.5C 268.5,79.5 267.5,79.5 266.5,79.5C 266.5,80.5 266.5,81.5 266.5,82.5C 265.5,82.5 264.5,82.5 263.5,82.5C 263.587,85.5983 263.087,85.9316 262,83.5C 261.747,78.961 261.247,74.461 260.5,70C 260.645,69.228 260.978,68.5613 261.5,68C 265.304,66.903 267.638,64.403 268.5,60.5C 272.165,59.3286 275.498,57.4953 278.5,55C 277.116,50.3314 274.616,49.4981 271,52.5C 268.773,51.6368 266.607,50.6368 264.5,49.5C 261.138,52.5029 259.138,56.1696 258.5,60.5C 257.5,60.5 256.5,60.5 255.5,60.5C 255.664,63.1873 255.497,65.854 255,68.5C 253.914,66.153 252.581,66.153 251,68.5C 247.46,66.2935 244.627,63.4601 242.5,60C 238.202,58.5404 235.202,59.8738 233.5,64C 234.988,65.7172 236.821,66.8839 239,67.5C 239.49,68.7932 239.657,70.1266 239.5,71.5C 237.063,71.2437 234.729,70.5771 232.5,69.5C 231.56,72.3901 229.893,74.7234 227.5,76.5C 225.803,75.6364 224.637,74.3031 224,72.5C 223.086,73.6537 222.253,73.487 221.5,72C 223.986,71.2949 223.986,70.4616 221.5,69.5C 222.946,66.6616 223.446,63.6616 223,60.5C 222.333,59.1667 221.667,59.1667 221,60.5C 219.764,59.6008 218.93,58.4341 218.5,57C 218.563,53.512 220.23,51.6787 223.5,51.5C 224.095,47.3852 225.095,43.3852 226.5,39.5C 229.95,38.7564 231.616,40.0897 231.5,43.5C 232.822,43.33 233.989,43.6634 235,44.5C 235.333,46.1667 235.667,47.8333 236,49.5C 240.212,47.2095 244.712,46.8762 249.5,48.5C 250.442,48.3918 251.275,48.0585 252,47.5C 252.06,44.125 253.227,41.2917 255.5,39C 260.828,38.8312 266.162,38.9979 271.5,39.5C 271.337,37.1432 271.503,34.8098 272,32.5C 272.75,31.8742 273.584,31.3742 274.5,31C 273.376,30.7508 272.376,30.2508 271.5,29.5C 271.833,29.1667 272.167,28.8333 272.5,28.5C 277.356,28.4365 281.69,28.4365 285.5,28.5 Z"/></g>
<g><path style="opacity:1" fill="#c13658" d="M 299.5,18.5 C 299.833,18.5 300.167,18.5 300.5,18.5C 300.833,19.8333 301.167,21.1667 301.5,22.5C 301.768,24.099 301.434,25.4324 300.5,26.5C 298.566,28.5948 296.399,30.5948 294,32.5C 293.489,34.8782 292.822,37.2115 292,39.5C 291.5,48.4938 291.334,57.4938 291.5,66.5C 290.778,66.9175 290.278,67.5842 290,68.5C 289.667,74.8333 289.333,81.1667 289,87.5C 288.79,85.9419 288.29,84.6085 287.5,83.5C 287.333,66.1635 287.5,48.8301 288,31.5C 288.333,32.1667 288.667,32.8333 289,33.5C 289.36,31.3921 290.027,29.3921 291,27.5C 294.736,25.2663 297.57,22.2663 299.5,18.5 Z"/></g>
<g><path style="opacity:1" fill="#ed7184" d="M 26.5,26.5 C 24.3767,29.7083 22.3767,33.0416 20.5,36.5C 19.8157,41.2076 18.9823,45.8742 18,50.5C 17.5001,68.4969 17.3334,86.4969 17.5,104.5C 16.7784,104.918 16.2784,105.584 16,106.5C 15.7551,117.684 15.2551,128.85 14.5,140C 15.3652,148.668 15.0319,157.168 13.5,165.5C 12.111,160.534 10.4443,155.868 8.5,151.5C 7.48195,136.848 7.31528,122.181 8,107.5C 9,106.5 10,105.5 11,104.5C 12.0091,87.1807 12.6758,69.8474 13,52.5C 15.3814,44.3664 18.3814,36.3664 22,28.5C 23.1096,26.9632 24.6096,26.2965 26.5,26.5 Z"/></g>
<g><path style="opacity:1" fill="#ee7a8a" d="M 27.5,23.5 C 26.8902,24.391 26.5569,25.391 26.5,26.5C 24.6096,26.2965 23.1096,26.9632 22,28.5C 18.3814,36.3664 15.3814,44.3664 13,52.5C 12.6758,69.8474 12.0091,87.1807 11,104.5C 10,105.5 9,106.5 8,107.5C 7.31528,122.181 7.48195,136.848 8.5,151.5C 7.16667,151.5 5.83333,151.5 4.5,151.5C 4.6665,162.172 4.49984,172.839 4,183.5C 3.38418,168.663 2.55085,153.996 1.5,139.5C 1.5,110.167 1.5,80.8333 1.5,51.5C 2.31382,49.369 2.81382,47.0356 3,44.5C 3.66667,43.1667 4.33333,43.1667 5,44.5C 5.22131,41.0569 6.22131,40.7236 8,43.5C 11.3416,40.4908 14.3416,37.1575 17,33.5C 18.4562,28.0217 21.9562,24.6884 27.5,23.5 Z"/></g>
<g><path style="opacity:1" fill="#d63664" d="M 297.5,16.5 C 298.5,16.8333 299.167,17.5 299.5,18.5C 297.57,22.2663 294.736,25.2663 291,27.5C 290.027,29.3921 289.36,31.3921 289,33.5C 288.667,32.8333 288.333,32.1667 288,31.5C 287.5,48.8301 287.333,66.1635 287.5,83.5C 287.5,100.833 287.5,118.167 287.5,135.5C 286.5,135.5 285.5,135.5 284.5,135.5C 283.499,122.177 283.499,108.844 284.5,95.5C 285.708,79.3427 285.708,63.3427 284.5,47.5C 284.268,43.0202 284.935,38.6868 286.5,34.5C 285.652,32.5914 285.318,30.5914 285.5,28.5C 287.339,27.4923 288.672,25.9923 289.5,24C 292.154,22.431 294.821,20.7643 297.5,19C 296.226,18.0228 296.226,17.1894 297.5,16.5 Z"/></g>
<g><path style="opacity:1" fill="#665b5d" d="M 303.5,23.5 C 305.483,26.7994 306.483,30.4661 306.5,34.5C 306.667,115.501 306.5,196.501 306,277.5C 304.549,285.078 301.049,291.412 295.5,296.5C 295.351,295.448 295.517,294.448 296,293.5C 303.14,285.643 306.307,276.309 305.5,265.5C 305.5,191.5 305.5,117.5 305.5,43.5C 305.817,39.2984 305.483,35.2984 304.5,31.5C 304.167,28.8333 303.833,26.1667 303.5,23.5 Z"/></g>
<g><path style="opacity:1" fill="#e7406c" d="M 284.5,47.5 C 285.708,63.3427 285.708,79.3427 284.5,95.5C 283.842,96.3984 283.176,97.3984 282.5,98.5C 278.277,98.4398 273.944,98.2731 269.5,98C 267.238,97.3581 265.071,96.5248 263,95.5C 262.999,98.687 262.166,101.52 260.5,104C 262.481,104.605 262.815,105.605 261.5,107C 259.144,107.155 256.811,107.155 254.5,107C 253.204,109.862 251.371,112.362 249,114.5C 248.667,113.833 248.333,113.167 248,112.5C 246.951,114.107 245.451,114.773 243.5,114.5C 239.016,110.422 234.016,107.089 228.5,104.5C 228.047,103.542 227.381,102.708 226.5,102C 223.522,101.304 220.522,100.804 217.5,100.5C 216.833,100.5 216.167,100.5 215.5,100.5C 210.35,99.3493 205.016,99.1826 199.5,100C 197.277,100.566 195.277,101.4 193.5,102.5C 183.641,105.929 175.308,111.596 168.5,119.5C 167.271,116.865 167.271,114.199 168.5,111.5C 170.202,109.586 172.202,108.086 174.5,107C 174.167,106.667 173.833,106.333 173.5,106C 175.107,104.951 175.773,103.451 175.5,101.5C 176.675,101.719 177.675,101.386 178.5,100.5C 179.23,97.8908 179.73,95.2241 180,92.5C 182.672,91.2412 184.839,91.9079 186.5,94.5C 189.428,95.4841 192.428,95.8174 195.5,95.5C 195.238,94.0222 195.571,92.6888 196.5,91.5C 198.9,90.9817 200.9,89.815 202.5,88C 193.065,84.3346 193.398,81.5013 203.5,79.5C 203.343,80.8734 203.51,82.2068 204,83.5C 207.118,86.7419 210.951,88.0752 215.5,87.5C 216.483,83.6718 218.817,80.8385 222.5,79C 221.646,77.9783 220.646,77.1449 219.5,76.5C 215.712,80.4682 214.546,79.4682 216,73.5C 217.914,72.324 217.748,71.324 215.5,70.5C 217.396,69.5344 219.396,69.2011 221.5,69.5C 223.986,70.4616 223.986,71.2949 221.5,72C 222.253,73.487 223.086,73.6537 224,72.5C 224.637,74.3031 225.803,75.6364 227.5,76.5C 229.893,74.7234 231.56,72.3901 232.5,69.5C 234.729,70.5771 237.063,71.2437 239.5,71.5C 239.657,70.1266 239.49,68.7932 239,67.5C 236.821,66.8839 234.988,65.7172 233.5,64C 235.202,59.8738 238.202,58.5404 242.5,60C 244.627,63.4601 247.46,66.2935 251,68.5C 252.581,66.153 253.914,66.153 255,68.5C 255.497,65.854 255.664,63.1873 255.5,60.5C 256.5,60.5 257.5,60.5 258.5,60.5C 259.138,56.1696 261.138,52.5029 264.5,49.5C 266.607,50.6368 268.773,51.6368 271,52.5C 274.616,49.4981 277.116,50.3314 278.5,55C 275.498,57.4953 272.165,59.3286 268.5,60.5C 267.638,64.403 265.304,66.903 261.5,68C 260.978,68.5613 260.645,69.228 260.5,70C 261.247,74.461 261.747,78.961 262,83.5C 263.087,85.9316 263.587,85.5983 263.5,82.5C 264.5,82.5 265.5,82.5 266.5,82.5C 266.5,81.5 266.5,80.5 266.5,79.5C 267.5,79.5 268.5,79.5 269.5,79.5C 270.363,76.5325 270.03,73.5325 268.5,70.5C 270.392,66.53 271.392,66.8634 271.5,71.5C 272.552,71.6495 273.552,71.4828 274.5,71C 272.025,68.3826 272.525,66.2159 276,64.5C 278.351,67.2099 280.351,66.8765 282,63.5C 282.333,58.1667 282.667,52.8333 283,47.5C 283.779,50.0972 284.279,50.0972 284.5,47.5 Z"/></g>
<g><path style="opacity:1" fill="#a5294b" d="M 300.5,26.5 C 299.604,32.3029 298.104,37.9695 296,43.5C 295.5,81.4985 295.333,119.499 295.5,157.5C 294.506,147.681 294.173,137.681 294.5,127.5C 293.5,127.5 292.5,127.5 291.5,127.5C 291.5,107.167 291.5,86.8333 291.5,66.5C 291.334,57.4938 291.5,48.4938 292,39.5C 292.822,37.2115 293.489,34.8782 294,32.5C 296.399,30.5948 298.566,28.5948 300.5,26.5 Z"/></g>
<g><path style="opacity:1" fill="#e45270" d="M 86.5,99.5 C 87.8598,101.802 87.1932,103.468 84.5,104.5C 86.8559,105.654 87.0226,106.987 85,108.5C 84.2569,106.355 83.4235,106.189 82.5,108C 84.2179,110.958 85.2179,114.125 85.5,117.5C 82.7985,112.42 80.4652,107.086 78.5,101.5C 70.2312,99.5302 61.5645,98.8636 52.5,99.5C 60.0104,98.8334 67.6771,98.1667 75.5,97.5C 75.2907,96.914 74.9574,96.414 74.5,96C 75.9431,94.9328 77.2764,93.7662 78.5,92.5C 79.3714,97.0462 82.0381,99.3795 86.5,99.5 Z"/></g>
<g><path style="opacity:1" fill="#e6386d" d="M 284.5,95.5 C 283.499,108.844 283.499,122.177 284.5,135.5C 284.672,136.492 284.338,137.158 283.5,137.5C 280.564,136.594 277.564,135.928 274.5,135.5C 274.5,138.167 274.5,140.833 274.5,143.5C 273.5,143.5 272.5,143.5 271.5,143.5C 271.5,144.5 271.5,145.5 271.5,146.5C 269.08,146.292 266.747,146.626 264.5,147.5C 263.571,148.689 263.238,150.022 263.5,151.5C 260.266,151.763 258.932,150.263 259.5,147C 259.869,142.902 260.703,139.069 262,135.5C 261.667,135.833 261.333,136.167 261,136.5C 260.691,135.234 260.191,134.067 259.5,133C 257.071,133.335 256.238,134.835 257,137.5C 258.368,135.185 259.201,135.185 259.5,137.5C 259.547,139.038 258.88,140.038 257.5,140.5C 257.167,139.5 256.5,138.833 255.5,138.5C 253.617,129.401 249.617,121.401 243.5,114.5C 245.451,114.773 246.951,114.107 248,112.5C 248.333,113.167 248.667,113.833 249,114.5C 251.371,112.362 253.204,109.862 254.5,107C 256.811,107.155 259.144,107.155 261.5,107C 262.815,105.605 262.481,104.605 260.5,104C 262.166,101.52 262.999,98.687 263,95.5C 265.071,96.5248 267.238,97.3581 269.5,98C 273.944,98.2731 278.277,98.4398 282.5,98.5C 283.176,97.3984 283.842,96.3984 284.5,95.5 Z"/></g>
<g><path style="opacity:1" fill="#ecc2ca" d="M 52.5,99.5 C 61.5645,98.8636 70.2312,99.5302 78.5,101.5C 70.0682,100.186 61.7349,100.186 53.5,101.5C 52.6618,101.158 52.3284,100.492 52.5,99.5 Z"/></g>
<g><path style="opacity:1" fill="#e9bec9" d="M 130.5,99.5 C 130.833,99.5 131.167,99.5 131.5,99.5C 139.833,99.5 148.167,99.5 156.5,99.5C 156.737,100.791 156.404,101.791 155.5,102.5C 151.893,101.176 147.893,100.509 143.5,100.5C 139.086,100.529 134.753,100.862 130.5,101.5C 130.5,100.833 130.5,100.167 130.5,99.5 Z"/></g>
<g><path style="opacity:1" fill="#e89baf" d="M 215.5,100.5 C 208.063,100.221 200.73,100.888 193.5,102.5C 195.277,101.4 197.277,100.566 199.5,100C 205.016,99.1826 210.35,99.3493 215.5,100.5 Z"/></g>
<g><path style="opacity:1" fill="#fdfbfb" d="M 78.5,101.5 C 80.4652,107.086 82.7985,112.42 85.5,117.5C 85.3284,118.492 85.6618,119.158 86.5,119.5C 86.8333,120.833 87.1667,122.167 87.5,123.5C 87.6596,125.153 88.3263,126.486 89.5,127.5C 93.6021,138.375 98.2687,149.042 103.5,159.5C 112.479,140.206 121.479,120.873 130.5,101.5C 134.753,100.862 139.086,100.529 143.5,100.5C 147.893,100.509 151.893,101.176 155.5,102.5C 146.991,119.523 138.991,136.856 131.5,154.5C 129.93,157.314 128.597,160.314 127.5,163.5C 125.755,165.033 124.755,167.033 124.5,169.5C 117.695,183.123 111.362,197.123 105.5,211.5C 101.382,218.071 98.0489,225.071 95.5,232.5C 86.9832,232.826 78.6499,232.493 70.5,231.5C 73.1096,225.947 75.4429,220.281 77.5,214.5C 81.9163,207.329 85.5829,199.663 88.5,191.5C 89.6129,190.054 89.7796,188.387 89,186.5C 81.311,168.036 73.4777,149.703 65.5,131.5C 61.5,121.5 57.5,111.5 53.5,101.5C 61.7349,100.186 70.0682,100.186 78.5,101.5 Z"/></g>
<g><path style="opacity:1" fill="#fdfbfc" d="M 215.5,100.5 C 216.167,100.5 216.833,100.5 217.5,100.5C 220.939,102.204 224.605,103.538 228.5,104.5C 234.016,107.089 239.016,110.422 243.5,114.5C 249.617,121.401 253.617,129.401 255.5,138.5C 256.475,157.454 256.808,176.454 256.5,195.5C 249.167,195.5 241.833,195.5 234.5,195.5C 234.817,192.428 234.484,189.428 233.5,186.5C 232.478,186.855 231.811,187.522 231.5,188.5C 227.039,191.726 222.039,193.893 216.5,195C 208.805,195.691 201.139,195.525 193.5,194.5C 187.235,191.363 181.235,187.696 175.5,183.5C 166.977,175.297 161.977,165.297 160.5,153.5C 160.347,147.131 160.68,140.797 161.5,134.5C 163.834,132.824 164.834,130.491 164.5,127.5C 165.569,125.031 166.902,122.698 168.5,120.5C 168.5,120.167 168.5,119.833 168.5,119.5C 175.308,111.596 183.641,105.929 193.5,102.5C 200.73,100.888 208.063,100.221 215.5,100.5 Z"/></g>
<g><path style="opacity:1" fill="#dc6585" d="M 217.5,100.5 C 220.522,100.804 223.522,101.304 226.5,102C 227.381,102.708 228.047,103.542 228.5,104.5C 224.605,103.538 220.939,102.204 217.5,100.5 Z"/></g>
<g><path style="opacity:1" fill="#761b34" d="M 304.5,31.5 C 305.483,35.2984 305.817,39.2984 305.5,43.5C 303.965,50.2643 303.298,57.2643 303.5,64.5C 304.01,101.469 304.343,138.469 304.5,175.5C 303.806,165.306 302.972,154.973 302,144.5C 301.617,143.944 301.117,143.611 300.5,143.5C 300.272,129.99 299.605,116.656 298.5,103.5C 298.333,83.1639 298.5,62.8306 299,42.5C 300.864,38.7726 302.697,35.1059 304.5,31.5 Z"/></g>
<g><path style="opacity:1" fill="#ec6680" d="M 17.5,104.5 C 17.5,112.5 17.5,120.5 17.5,128.5C 17.4641,140.251 17.2975,151.918 17,163.5C 16.3457,162.304 15.8457,162.304 15.5,163.5C 16,164.5 16.5,165.5 17,166.5C 17.4997,174.827 17.6664,183.16 17.5,191.5C 17.5,192.5 17.5,193.5 17.5,194.5C 16.5176,192.594 15.5176,190.594 14.5,188.5C 13.8165,188.137 13.1499,187.804 12.5,187.5C 13.6008,180.119 13.9341,172.786 13.5,165.5C 15.0319,157.168 15.3652,148.668 14.5,140C 15.2551,128.85 15.7551,117.684 16,106.5C 16.2784,105.584 16.7784,104.918 17.5,104.5 Z"/></g>
<g><path style="opacity:1" fill="#e84969" d="M 52.5,99.5 C 52.3284,100.492 52.6618,101.158 53.5,101.5C 57.5,111.5 61.5,121.5 65.5,131.5C 65.6567,132.873 65.49,134.207 65,135.5C 64.3457,134.304 63.8457,134.304 63.5,135.5C 65.2024,138.69 64.5357,139.857 61.5,139C 57.2754,142.15 57.6087,144.65 62.5,146.5C 63.2508,145.624 63.7508,144.624 64,143.5C 65.608,145.1 67.4414,146.433 69.5,147.5C 67.7589,151.658 68.4256,155.324 71.5,158.5C 69.604,159.466 67.604,159.799 65.5,159.5C 65.67,158.178 65.3366,157.011 64.5,156C 60.1667,155.667 55.8333,155.333 51.5,155C 50,153.167 48.5,151.333 47,149.5C 46.2613,150.574 45.2613,151.241 44,151.5C 41.8788,148.067 39.3788,147.733 36.5,150.5C 35.0786,153.956 36.2453,156.29 40,157.5C 41.353,156.315 42.5197,154.981 43.5,153.5C 48.1831,157.717 48.6831,162.383 45,167.5C 43.5557,165.845 41.7224,165.178 39.5,165.5C 39.6495,164.448 39.4828,163.448 39,162.5C 37.647,163.685 36.4803,165.019 35.5,166.5C 36.0253,167.192 36.6919,167.692 37.5,168C 36.6569,169.787 36.4902,171.62 37,173.5C 35.4157,174.861 33.5824,175.528 31.5,175.5C 31.5,176.833 31.5,178.167 31.5,179.5C 29.3652,179.147 28.0319,179.98 27.5,182C 28.5465,183.68 29.2132,185.514 29.5,187.5C 28.8086,190.198 28.1419,192.865 27.5,195.5C 25.6693,194.948 24.0026,194.948 22.5,195.5C 21.8328,198.977 21.1661,202.311 20.5,205.5C 20.5,195.5 20.5,185.5 20.5,175.5C 21.3255,171.018 21.8255,166.351 22,161.5C 22.3333,161.833 22.6667,162.167 23,162.5C 23.4998,153.506 23.6664,144.506 23.5,135.5C 25.1992,135.66 26.8659,135.494 28.5,135C 27.4216,134.326 26.7549,133.326 26.5,132C 28.3565,128.969 29.0231,125.803 28.5,122.5C 29.1667,122.167 29.8333,121.833 30.5,121.5C 31.4656,123.396 31.7989,125.396 31.5,127.5C 33.288,127.785 34.9547,127.452 36.5,126.5C 37.09,125.201 38.09,124.368 39.5,124C 37.9632,122.89 37.2965,121.39 37.5,119.5C 39.7224,119.178 41.5557,119.845 43,121.5C 45.1742,119.824 47.6742,118.824 50.5,118.5C 52.3924,119.813 54.059,119.646 55.5,118C 50.6369,117.971 45.9703,117.138 41.5,115.5C 43.1585,112.09 45.6585,110.757 49,111.5C 49.6054,109.519 50.6054,109.185 52,110.5C 51.3821,106.695 51.5488,103.028 52.5,99.5 Z"/></g>
<g><path style="opacity:1" fill="#e59dae" d="M 87.5,123.5 C 89.1042,124.287 89.7709,125.62 89.5,127.5C 88.3263,126.486 87.6596,125.153 87.5,123.5 Z"/></g>
<g><path style="opacity:1" fill="#e6466f" d="M 168.5,120.5 C 166.902,122.698 165.569,125.031 164.5,127.5C 162.935,129.509 161.935,131.843 161.5,134.5C 160.68,140.797 160.347,147.131 160.5,153.5C 159.566,152.432 159.232,151.099 159.5,149.5C 157.41,149.55 156.077,148.55 155.5,146.5C 157.153,143.085 156.653,140.085 154,137.5C 153.586,137.957 153.086,138.291 152.5,138.5C 151.833,137.5 151.167,136.5 150.5,135.5C 149.786,138.027 149.12,140.527 148.5,143C 151.943,143.221 152.276,144.221 149.5,146C 144.171,146.541 142.837,144.707 145.5,140.5C 145.333,139.5 145.167,138.5 145,137.5C 144.667,137.833 144.333,138.167 144,138.5C 143.333,137.167 142.667,135.833 142,134.5C 142,136.5 142,138.5 142,140.5C 141.692,139.692 141.192,139.025 140.5,138.5C 139.82,141.741 138.486,144.574 136.5,147C 137.685,152.458 138.851,152.625 140,147.5C 140.526,149.55 141.359,151.383 142.5,153C 140.19,153.497 137.857,153.663 135.5,153.5C 135.617,155.484 134.95,157.15 133.5,158.5C 133.167,158.167 132.833,157.833 132.5,157.5C 134.124,156.131 134.624,154.464 134,152.5C 133.583,153.756 132.75,154.423 131.5,154.5C 138.991,136.856 146.991,119.523 155.5,102.5C 156.404,101.791 156.737,100.791 156.5,99.5C 148.167,99.5 139.833,99.5 131.5,99.5C 140.675,98.8334 150.009,98.1667 159.5,97.5C 158.624,96.7492 157.624,96.2492 156.5,96C 159.146,95.5026 161.813,95.3359 164.5,95.5C 165.005,98.8411 165.172,102.174 165,105.5C 164.311,109.292 162.144,111.292 158.5,111.5C 157.969,114.237 157.136,116.904 156,119.5C 154.182,117.355 152.682,117.355 151.5,119.5C 153.5,120.833 155.5,122.167 157.5,123.5C 156.226,125.812 154.226,127.145 151.5,127.5C 150.614,128.325 150.281,129.325 150.5,130.5C 151.873,130.657 153.207,130.49 154.5,130C 155.862,127.561 157.695,127.061 160,128.5C 161.145,125.568 161.978,122.568 162.5,119.5C 164.565,119.517 166.565,119.85 168.5,120.5 Z"/></g>
<g><path style="opacity:1" fill="#edb7c5" d="M 164.5,127.5 C 164.834,130.491 163.834,132.824 161.5,134.5C 161.935,131.843 162.935,129.509 164.5,127.5 Z"/></g>
<g><path style="opacity:1" fill="#e63b6e" d="M 182.5,153.5 C 182.372,149.119 182.705,144.785 183.5,140.5C 189.004,125.576 199.671,119.742 215.5,123C 229.475,128.452 235.641,138.619 234,153.5C 226.748,171.373 213.915,177.207 195.5,171C 189.071,166.608 184.738,160.775 182.5,153.5 Z"/></g>
<g><path style="opacity:1" fill="#e62e6e" d="M 283.5,137.5 C 283.778,150.917 283.778,164.25 283.5,177.5C 282.603,178.598 281.77,178.598 281,177.5C 279.691,179.976 277.858,181.976 275.5,183.5C 274.481,182.313 273.314,181.313 272,180.5C 269.967,184.67 270.134,188.67 272.5,192.5C 271.985,194.225 271.318,195.892 270.5,197.5C 268.833,195.5 267.167,193.5 265.5,191.5C 264.682,188.893 264.182,186.226 264,183.5C 263.886,188.757 262.719,193.757 260.5,198.5C 259.719,199.737 258.719,200.737 257.5,201.5C 257.08,199.674 257.08,197.674 257.5,195.5C 257.5,177.167 257.5,158.833 257.5,140.5C 258.88,140.038 259.547,139.038 259.5,137.5C 259.201,135.185 258.368,135.185 257,137.5C 256.238,134.835 257.071,133.335 259.5,133C 260.191,134.067 260.691,135.234 261,136.5C 261.333,136.167 261.667,135.833 262,135.5C 260.703,139.069 259.869,142.902 259.5,147C 258.932,150.263 260.266,151.763 263.5,151.5C 263.238,150.022 263.571,148.689 264.5,147.5C 266.747,146.626 269.08,146.292 271.5,146.5C 271.5,145.5 271.5,144.5 271.5,143.5C 272.5,143.5 273.5,143.5 274.5,143.5C 274.5,140.833 274.5,138.167 274.5,135.5C 277.564,135.928 280.564,136.594 283.5,137.5 Z"/></g>
<g><path style="opacity:1" fill="#bf2b58" d="M 291.5,66.5 C 291.5,86.8333 291.5,107.167 291.5,127.5C 291.5,136.167 291.5,144.833 291.5,153.5C 290.655,154.671 289.989,156.005 289.5,157.5C 288.833,154.833 288.167,152.167 287.5,149.5C 287.5,144.833 287.5,140.167 287.5,135.5C 287.5,118.167 287.5,100.833 287.5,83.5C 288.29,84.6085 288.79,85.9419 289,87.5C 289.333,81.1667 289.667,74.8333 290,68.5C 290.278,67.5842 290.778,66.9175 291.5,66.5 Z"/></g>
<g><path style="opacity:1" fill="#c3aeaf" d="M 7.5,16.5 C 7.5,17.1667 7.5,17.8333 7.5,18.5C 6.83333,18.5 6.5,18.8333 6.5,19.5C 4.85738,23.4591 3.19071,27.4591 1.5,31.5C 1.5,38.1667 1.5,44.8333 1.5,51.5C 1.5,80.8333 1.5,110.167 1.5,139.5C 1.5,168.833 1.5,198.167 1.5,227.5C 1.5,240.167 1.5,252.833 1.5,265.5C 1.5,267.833 1.5,270.167 1.5,272.5C 1.44805,274.903 1.78138,277.236 2.5,279.5C 2.5,280.167 2.5,280.833 2.5,281.5C 1.25133,278.913 0.251327,276.246 -0.5,273.5C -0.5,193.5 -0.5,113.5 -0.5,33.5C 0.803902,27.224 3.47057,21.5573 7.5,16.5 Z"/></g>
<g><path style="opacity:1" fill="#69122d" d="M 305.5,43.5 C 305.5,117.5 305.5,191.5 305.5,265.5C 303.333,267.416 301.333,269.416 299.5,271.5C 300.78,266.736 302.28,262.07 304,257.5C 304.5,230.169 304.667,202.835 304.5,175.5C 304.343,138.469 304.01,101.469 303.5,64.5C 303.298,57.2643 303.965,50.2643 305.5,43.5 Z"/></g>
<g><path style="opacity:1" fill="#f7d3df" d="M 183.5,140.5 C 182.705,144.785 182.372,149.119 182.5,153.5C 181.355,149.689 181.188,145.689 182,141.5C 182.383,140.944 182.883,140.611 183.5,140.5 Z"/></g>
<g><path style="opacity:1" fill="#e6476f" d="M 130.5,99.5 C 130.5,100.167 130.5,100.833 130.5,101.5C 121.479,120.873 112.479,140.206 103.5,159.5C 98.2687,149.042 93.6021,138.375 89.5,127.5C 89.7709,125.62 89.1042,124.287 87.5,123.5C 87.1667,122.167 86.8333,120.833 86.5,119.5C 87.5,119.5 88.5,119.5 89.5,119.5C 89.3505,120.552 89.5172,121.552 90,122.5C 91.8479,120.047 94.3479,119.047 97.5,119.5C 97.5052,126.036 98.0052,132.37 99,138.5C 101.277,142.547 102.944,142.214 104,137.5C 104.689,138.357 105.522,139.023 106.5,139.5C 108.52,134.798 110.52,130.131 112.5,125.5C 116.139,123.724 116.472,121.39 113.5,118.5C 115.041,116.796 116.375,114.963 117.5,113C 114.966,110.641 115.633,109.474 119.5,109.5C 119.34,107.801 119.506,106.134 120,104.5C 120.333,105.5 120.667,106.5 121,107.5C 122.413,105.586 124.247,104.253 126.5,103.5C 127.308,101.577 127.808,99.5767 128,97.5C 128.995,98.0659 129.828,98.7326 130.5,99.5 Z"/></g>
<g><path style="opacity:1" fill="#ce4576" d="M 255.5,138.5 C 256.5,138.833 257.167,139.5 257.5,140.5C 257.5,158.833 257.5,177.167 257.5,195.5C 257.167,195.5 256.833,195.5 256.5,195.5C 256.808,176.454 256.475,157.454 255.5,138.5 Z"/></g>
<g><path style="opacity:1" fill="#ea5b79" d="M 20.5,103.5 C 19.4066,127.712 19.4066,151.712 20.5,175.5C 20.5,185.5 20.5,195.5 20.5,205.5C 20.5,206.5 20.5,207.5 20.5,208.5C 19.8354,214.477 19.502,220.477 19.5,226.5C 18.0532,225.866 17.3866,224.699 17.5,223C 17.6521,212.362 17.6521,201.862 17.5,191.5C 17.6664,183.16 17.4997,174.827 17,166.5C 16.5,165.5 16,164.5 15.5,163.5C 15.8457,162.304 16.3457,162.304 17,163.5C 17.2975,151.918 17.4641,140.251 17.5,128.5C 18.329,121.011 18.829,113.344 19,105.5C 19.2784,104.584 19.7784,103.918 20.5,103.5 Z"/></g>
<g><path style="opacity:1" fill="#e8416b" d="M 65.5,159.5 C 64.5,159.5 63.5,159.5 62.5,159.5C 62.5,161.167 62.5,162.833 62.5,164.5C 64.905,164.134 67.2383,163.467 69.5,162.5C 70.4419,162.608 71.2753,162.941 72,163.5C 75.6435,169.609 74.1435,173.275 67.5,174.5C 68.9532,177.298 69.9532,180.298 70.5,183.5C 72.2189,180.952 73.5522,181.285 74.5,184.5C 76.3817,183.907 78.2151,183.24 80,182.5C 81.128,184.345 81.628,186.345 81.5,188.5C 80.5028,188.47 79.8361,188.97 79.5,190C 78.7963,193.128 78.2963,196.294 78,199.5C 77.586,199.957 77.086,200.291 76.5,200.5C 76.1667,199 75.8333,197.5 75.5,196C 77.5307,192.775 77.364,189.942 75,187.5C 72.3475,189.43 71.0141,192.096 71,195.5C 68.5991,194.398 66.0991,194.231 63.5,195C 64.5,195.333 65.5,195.667 66.5,196C 60.6273,197.598 58.294,201.431 59.5,207.5C 58.0222,207.238 56.6888,207.571 55.5,208.5C 57.9913,209.541 57.9913,210.374 55.5,211C 56.5,211.333 57.5,211.667 58.5,212C 54.6821,213.918 52.3488,212.584 51.5,208C 49.8988,207.727 48.3988,207.227 47,206.5C 46.5193,208.478 45.3527,209.811 43.5,210.5C 41.3686,209.037 39.0353,208.037 36.5,207.5C 34.626,207.39 33.126,208.056 32,209.5C 31.3261,208.422 30.3261,207.755 29,207.5C 27.1999,208.378 25.3666,209.045 23.5,209.5C 23.5,210.833 23.5,212.167 23.5,213.5C 29.6263,214.614 29.9596,216.614 24.5,219.5C 23.1351,215.729 21.8018,212.063 20.5,208.5C 20.5,207.5 20.5,206.5 20.5,205.5C 21.1661,202.311 21.8328,198.977 22.5,195.5C 24.0026,194.948 25.6693,194.948 27.5,195.5C 28.1419,192.865 28.8086,190.198 29.5,187.5C 29.2132,185.514 28.5465,183.68 27.5,182C 28.0319,179.98 29.3652,179.147 31.5,179.5C 31.5,178.167 31.5,176.833 31.5,175.5C 33.5824,175.528 35.4157,174.861 37,173.5C 36.4902,171.62 36.6569,169.787 37.5,168C 36.6919,167.692 36.0253,167.192 35.5,166.5C 36.4803,165.019 37.647,163.685 39,162.5C 39.4828,163.448 39.6495,164.448 39.5,165.5C 41.7224,165.178 43.5557,165.845 45,167.5C 48.6831,162.383 48.1831,157.717 43.5,153.5C 42.5197,154.981 41.353,156.315 40,157.5C 36.2453,156.29 35.0786,153.956 36.5,150.5C 39.3788,147.733 41.8788,148.067 44,151.5C 45.2613,151.241 46.2613,150.574 47,149.5C 48.5,151.333 50,153.167 51.5,155C 55.8333,155.333 60.1667,155.667 64.5,156C 65.3366,157.011 65.67,158.178 65.5,159.5 Z"/></g>
<g><path style="opacity:1" fill="#e63c6e" d="M 160.5,153.5 C 161.977,165.297 166.977,175.297 175.5,183.5C 173.408,183.439 171.908,182.439 171,180.5C 170.418,183.668 169.418,184.001 168,181.5C 165.095,184.193 162.429,183.86 160,180.5C 158.113,183.383 155.613,185.716 152.5,187.5C 151.571,188.689 151.238,190.022 151.5,191.5C 148.833,191.5 146.167,191.5 143.5,191.5C 143.5,192.5 143.5,193.5 143.5,194.5C 140.833,194.5 138.167,194.5 135.5,194.5C 135.719,193.325 135.386,192.325 134.5,191.5C 133.52,194.086 133.187,196.753 133.5,199.5C 131.5,199.5 129.5,199.5 127.5,199.5C 128.119,204.206 126.119,206.873 121.5,207.5C 121.392,209.783 120.559,211.783 119,213.5C 117.542,212.253 116.042,212.253 114.5,213.5C 113.252,212.96 112.085,212.293 111,211.5C 110.667,211.833 110.333,212.167 110,212.5C 109.692,211.692 109.192,211.025 108.5,210.5C 107.583,211.127 106.583,211.461 105.5,211.5C 111.362,197.123 117.695,183.123 124.5,169.5C 125.117,169.611 125.617,169.944 126,170.5C 126.44,168.134 126.94,165.801 127.5,163.5C 128.597,160.314 129.93,157.314 131.5,154.5C 132.75,154.423 133.583,153.756 134,152.5C 134.624,154.464 134.124,156.131 132.5,157.5C 132.833,157.833 133.167,158.167 133.5,158.5C 134.95,157.15 135.617,155.484 135.5,153.5C 137.857,153.663 140.19,153.497 142.5,153C 141.359,151.383 140.526,149.55 140,147.5C 138.851,152.625 137.685,152.458 136.5,147C 138.486,144.574 139.82,141.741 140.5,138.5C 141.192,139.025 141.692,139.692 142,140.5C 142,138.5 142,136.5 142,134.5C 142.667,135.833 143.333,137.167 144,138.5C 144.333,138.167 144.667,137.833 145,137.5C 145.167,138.5 145.333,139.5 145.5,140.5C 142.837,144.707 144.171,146.541 149.5,146C 152.276,144.221 151.943,143.221 148.5,143C 149.12,140.527 149.786,138.027 150.5,135.5C 151.167,136.5 151.833,137.5 152.5,138.5C 153.086,138.291 153.586,137.957 154,137.5C 156.653,140.085 157.153,143.085 155.5,146.5C 156.077,148.55 157.41,149.55 159.5,149.5C 159.232,151.099 159.566,152.432 160.5,153.5 Z"/></g>
<g><path style="opacity:1" fill="#e6466f" d="M 65.5,131.5 C 73.4777,149.703 81.311,168.036 89,186.5C 89.7796,188.387 89.6129,190.054 88.5,191.5C 86.7462,188.504 85.5795,185.171 85,181.5C 83.7844,183.962 83.1177,186.629 83,189.5C 82.6174,188.944 82.1174,188.611 81.5,188.5C 81.628,186.345 81.128,184.345 80,182.5C 78.2151,183.24 76.3817,183.907 74.5,184.5C 73.5522,181.285 72.2189,180.952 70.5,183.5C 69.9532,180.298 68.9532,177.298 67.5,174.5C 74.1435,173.275 75.6435,169.609 72,163.5C 71.2753,162.941 70.4419,162.608 69.5,162.5C 67.2383,163.467 64.905,164.134 62.5,164.5C 62.5,162.833 62.5,161.167 62.5,159.5C 63.5,159.5 64.5,159.5 65.5,159.5C 67.604,159.799 69.604,159.466 71.5,158.5C 68.4256,155.324 67.7589,151.658 69.5,147.5C 67.4414,146.433 65.608,145.1 64,143.5C 63.7508,144.624 63.2508,145.624 62.5,146.5C 57.6087,144.65 57.2754,142.15 61.5,139C 64.5357,139.857 65.2024,138.69 63.5,135.5C 63.8457,134.304 64.3457,134.304 65,135.5C 65.49,134.207 65.6567,132.873 65.5,131.5 Z"/></g>
<g><path style="opacity:1" fill="#e1738e" d="M 127.5,163.5 C 126.94,165.801 126.44,168.134 126,170.5C 125.617,169.944 125.117,169.611 124.5,169.5C 124.755,167.033 125.755,165.033 127.5,163.5 Z"/></g>
<g><path style="opacity:1" fill="#b82058" d="M 291.5,153.5 C 291.193,188.847 291.526,224.181 292.5,259.5C 291.383,263.415 290.55,267.415 290,271.5C 289.8,273.32 288.966,274.653 287.5,275.5C 288.243,270.119 289.243,264.786 290.5,259.5C 289.527,225.514 289.194,191.514 289.5,157.5C 289.989,156.005 290.655,154.671 291.5,153.5 Z"/></g>
<g><path style="opacity:1" fill="#e5286f" d="M 283.5,177.5 C 284.66,193.894 284.66,210.394 283.5,227C 284.778,241.337 285.112,255.671 284.5,270C 284.167,271.167 283.833,272.333 283.5,273.5C 280.687,276.555 278.02,279.721 275.5,283C 271.582,284.156 267.582,284.656 263.5,284.5C 265.892,282.946 268.559,281.613 271.5,280.5C 272.248,278.584 272.248,276.584 271.5,274.5C 280.01,275.654 284.01,271.988 283.5,263.5C 278.125,263.172 272.792,263.505 267.5,264.5C 266.653,265.845 265.487,266.845 264,267.5C 263.51,268.793 263.343,270.127 263.5,271.5C 256.989,270.92 250.989,272.42 245.5,276C 244.382,278.952 242.382,281.119 239.5,282.5C 240.602,283.176 241.602,283.842 242.5,284.5C 224.167,284.5 205.833,284.5 187.5,284.5C 159.67,283.668 131.67,283.168 103.5,283C 107.5,282.667 111.5,282.333 115.5,282C 114.042,277.719 114.375,273.219 116.5,268.5C 121.307,271.349 126.641,272.682 132.5,272.5C 132.078,268.288 132.744,264.288 134.5,260.5C 132.887,258.912 130.887,257.912 128.5,257.5C 127.386,256.277 127.219,254.944 128,253.5C 128.333,254.167 128.667,254.833 129,255.5C 129.465,254.069 130.299,252.903 131.5,252C 136.13,251.13 140.464,249.63 144.5,247.5C 144.343,248.873 144.51,250.207 145,251.5C 145.26,249.382 146.26,247.716 148,246.5C 149.794,251.633 148.294,255.133 143.5,257C 140.854,257.497 138.187,257.664 135.5,257.5C 135.33,258.822 135.663,259.989 136.5,261C 142.074,262.453 147.741,263.286 153.5,263.5C 153.956,259.889 153.289,256.556 151.5,253.5C 157.19,252.211 162.857,252.211 168.5,253.5C 172.634,251.443 174.967,248.11 175.5,243.5C 177.92,243.708 180.253,243.374 182.5,242.5C 182.272,239.891 182.605,237.224 183.5,234.5C 180.774,234.736 178.441,233.903 176.5,232C 177.849,231.228 178.682,230.061 179,228.5C 179.333,229.167 179.667,229.833 180,230.5C 180.667,229.167 181.333,227.833 182,226.5C 185.374,229.405 188.374,229.072 191,225.5C 191.684,227.479 191.184,229.146 189.5,230.5C 189.846,231.696 190.346,231.696 191,230.5C 191.49,231.793 191.657,233.127 191.5,234.5C 194.92,234.517 198.254,234.683 201.5,235C 202.46,231.27 202.793,227.437 202.5,223.5C 201.5,223.5 200.5,223.5 199.5,223.5C 199.167,219.677 200.834,218.177 204.5,219C 202.839,222.15 203.839,223.65 207.5,223.5C 207.612,228.593 208.445,228.593 210,223.5C 211.892,224.13 213.559,225.13 215,226.5C 215.483,225.552 215.649,224.552 215.5,223.5C 218.572,223.817 221.572,223.484 224.5,222.5C 223.593,219.579 223.26,216.579 223.5,213.5C 226.711,213.012 229.544,213.679 232,215.5C 233.836,214.331 235.002,212.664 235.5,210.5C 234.752,208.584 234.752,206.584 235.5,204.5C 232.037,205.45 228.537,205.116 225,203.5C 221.823,206.815 218.656,206.982 215.5,204C 218.532,200.2 222.032,199.7 226,202.5C 228.179,201.884 230.012,200.717 231.5,199C 239.926,197.453 248.26,196.286 256.5,195.5C 256.833,195.5 257.167,195.5 257.5,195.5C 257.08,197.674 257.08,199.674 257.5,201.5C 258.719,200.737 259.719,199.737 260.5,198.5C 262.719,193.757 263.886,188.757 264,183.5C 264.182,186.226 264.682,188.893 265.5,191.5C 267.167,193.5 268.833,195.5 270.5,197.5C 271.318,195.892 271.985,194.225 272.5,192.5C 270.134,188.67 269.967,184.67 272,180.5C 273.314,181.313 274.481,182.313 275.5,183.5C 277.858,181.976 279.691,179.976 281,177.5C 281.77,178.598 282.603,178.598 283.5,177.5 Z"/></g>
<g><path style="opacity:1" fill="#ed6e8d" d="M 1.5,139.5 C 2.55085,153.996 3.38418,168.663 4,183.5C 4.49984,172.839 4.6665,162.172 4.5,151.5C 5.83333,151.5 7.16667,151.5 8.5,151.5C 10.4443,155.868 12.111,160.534 13.5,165.5C 13.9341,172.786 13.6008,180.119 12.5,187.5C 12.1035,194.602 11.1035,201.602 9.5,208.5C 10.8952,214.202 10.7285,219.869 9,225.5C 8.66667,224.833 8.33333,224.167 8,223.5C 7,226.167 6,228.833 5,231.5C 4.83161,239.521 4.33161,247.521 3.5,255.5C 2.83331,246.009 2.16664,236.675 1.5,227.5C 1.5,198.167 1.5,168.833 1.5,139.5 Z"/></g>
<g><path style="opacity:1" fill="#ec668b" d="M 12.5,187.5 C 13.1499,187.804 13.8165,188.137 14.5,188.5C 15.5176,190.594 16.5176,192.594 17.5,194.5C 15.3671,207.148 14.7004,219.815 15.5,232.5C 15.4882,242.98 14.3216,253.313 12,263.5C 9.00639,266.62 5.50639,267.286 1.5,265.5C 1.5,252.833 1.5,240.167 1.5,227.5C 2.16664,236.675 2.83331,246.009 3.5,255.5C 4.33161,247.521 4.83161,239.521 5,231.5C 6,228.833 7,226.167 8,223.5C 8.33333,224.167 8.66667,224.833 9,225.5C 10.7285,219.869 10.8952,214.202 9.5,208.5C 11.1035,201.602 12.1035,194.602 12.5,187.5 Z"/></g>
<g><path style="opacity:1" fill="#de7fa0" d="M 234.5,195.5 C 234.083,192.841 233.083,190.508 231.5,188.5C 231.811,187.522 232.478,186.855 233.5,186.5C 234.484,189.428 234.817,192.428 234.5,195.5 Z"/></g>
<g><path style="opacity:1" fill="#e8406f" d="M 88.5,191.5 C 85.5829,199.663 81.9163,207.329 77.5,214.5C 77.6503,211.074 76.4837,210.741 74,213.5C 73.3311,210.972 72.4978,210.972 71.5,213.5C 67.8445,214.688 64.1778,214.688 60.5,213.5C 58.8034,213.899 57.1368,214.399 55.5,215C 57.6621,217.522 57.9955,220.355 56.5,223.5C 51.0617,221.612 45.3951,220.946 39.5,221.5C 39.5,223.167 39.5,224.833 39.5,226.5C 38.1779,226.67 37.0113,226.337 36,225.5C 35.0868,228.352 35.9201,230.519 38.5,232C 35.2976,233.483 31.9643,233.817 28.5,233C 28.2992,229.776 28.6326,226.443 29.5,223C 28.5,221 27.5,221 26.5,223C 27.0465,229.454 27.0465,235.621 26.5,241.5C 26.1667,242.5 25.5,243.167 24.5,243.5C 23.83,250.555 22.83,257.555 21.5,264.5C 23.1527,268.725 22.486,272.559 19.5,276C 15.1794,276.499 10.8461,276.666 6.5,276.5C 6.5,277.5 6.5,278.5 6.5,279.5C 5.16667,279.5 3.83333,279.5 2.5,279.5C 1.78138,277.236 1.44805,274.903 1.5,272.5C 5.08139,271.74 8.74805,271.24 12.5,271C 14.3333,269.833 15.8333,268.333 17,266.5C 18.4855,253.085 19.3189,239.752 19.5,226.5C 19.502,220.477 19.8354,214.477 20.5,208.5C 21.8018,212.063 23.1351,215.729 24.5,219.5C 29.9596,216.614 29.6263,214.614 23.5,213.5C 23.5,212.167 23.5,210.833 23.5,209.5C 25.3666,209.045 27.1999,208.378 29,207.5C 30.3261,207.755 31.3261,208.422 32,209.5C 33.126,208.056 34.626,207.39 36.5,207.5C 39.0353,208.037 41.3686,209.037 43.5,210.5C 45.3527,209.811 46.5193,208.478 47,206.5C 48.3988,207.227 49.8988,207.727 51.5,208C 52.3488,212.584 54.6821,213.918 58.5,212C 57.5,211.667 56.5,211.333 55.5,211C 57.9913,210.374 57.9913,209.541 55.5,208.5C 56.6888,207.571 58.0222,207.238 59.5,207.5C 58.294,201.431 60.6273,197.598 66.5,196C 65.5,195.667 64.5,195.333 63.5,195C 66.0991,194.231 68.5991,194.398 71,195.5C 71.0141,192.096 72.3475,189.43 75,187.5C 77.364,189.942 77.5307,192.775 75.5,196C 75.8333,197.5 76.1667,199 76.5,200.5C 77.086,200.291 77.586,199.957 78,199.5C 78.2963,196.294 78.7963,193.128 79.5,190C 79.8361,188.97 80.5028,188.47 81.5,188.5C 82.1174,188.611 82.6174,188.944 83,189.5C 83.1177,186.629 83.7844,183.962 85,181.5C 85.5795,185.171 86.7462,188.504 88.5,191.5 Z"/></g>
<g><path style="opacity:1" fill="#e62f6e" d="M 231.5,188.5 C 233.083,190.508 234.083,192.841 234.5,195.5C 241.833,195.5 249.167,195.5 256.5,195.5C 248.26,196.286 239.926,197.453 231.5,199C 230.012,200.717 228.179,201.884 226,202.5C 222.032,199.7 218.532,200.2 215.5,204C 218.656,206.982 221.823,206.815 225,203.5C 228.537,205.116 232.037,205.45 235.5,204.5C 234.752,206.584 234.752,208.584 235.5,210.5C 235.002,212.664 233.836,214.331 232,215.5C 229.544,213.679 226.711,213.012 223.5,213.5C 223.26,216.579 223.593,219.579 224.5,222.5C 221.572,223.484 218.572,223.817 215.5,223.5C 215.649,224.552 215.483,225.552 215,226.5C 213.559,225.13 211.892,224.13 210,223.5C 208.445,228.593 207.612,228.593 207.5,223.5C 203.839,223.65 202.839,222.15 204.5,219C 200.834,218.177 199.167,219.677 199.5,223.5C 200.5,223.5 201.5,223.5 202.5,223.5C 202.793,227.437 202.46,231.27 201.5,235C 198.254,234.683 194.92,234.517 191.5,234.5C 191.657,233.127 191.49,231.793 191,230.5C 190.346,231.696 189.846,231.696 189.5,230.5C 191.184,229.146 191.684,227.479 191,225.5C 188.374,229.072 185.374,229.405 182,226.5C 181.333,227.833 180.667,229.167 180,230.5C 179.667,229.833 179.333,229.167 179,228.5C 178.682,230.061 177.849,231.228 176.5,232C 178.441,233.903 180.774,234.736 183.5,234.5C 182.605,237.224 182.272,239.891 182.5,242.5C 180.253,243.374 177.92,243.708 175.5,243.5C 174.967,248.11 172.634,251.443 168.5,253.5C 162.857,252.211 157.19,252.211 151.5,253.5C 153.289,256.556 153.956,259.889 153.5,263.5C 147.741,263.286 142.074,262.453 136.5,261C 135.663,259.989 135.33,258.822 135.5,257.5C 138.187,257.664 140.854,257.497 143.5,257C 148.294,255.133 149.794,251.633 148,246.5C 146.26,247.716 145.26,249.382 145,251.5C 144.51,250.207 144.343,248.873 144.5,247.5C 140.464,249.63 136.13,251.13 131.5,252C 130.299,252.903 129.465,254.069 129,255.5C 128.667,254.833 128.333,254.167 128,253.5C 127.219,254.944 127.386,256.277 128.5,257.5C 130.887,257.912 132.887,258.912 134.5,260.5C 132.744,264.288 132.078,268.288 132.5,272.5C 126.641,272.682 121.307,271.349 116.5,268.5C 114.375,273.219 114.042,277.719 115.5,282C 111.5,282.333 107.5,282.667 103.5,283C 131.67,283.168 159.67,283.668 187.5,284.5C 136.494,284.727 85.4938,284.394 34.5,283.5C 35.6085,282.71 36.9419,282.21 38.5,282C 37.7631,278.868 37.4298,275.368 37.5,271.5C 41.796,272.463 46.1294,272.629 50.5,272C 51.6667,269.5 53.5,267.667 56,266.5C 56.3333,267.167 56.6667,267.833 57,268.5C 58.0086,266.975 58.5086,265.308 58.5,263.5C 61.5,263.5 64.5,263.5 67.5,263.5C 67.5,260.833 67.5,258.167 67.5,255.5C 73.7821,254.664 79.7821,254.331 85.5,254.5C 87.0267,251.34 87.6933,248.007 87.5,244.5C 90.9205,244.517 94.2538,244.683 97.5,245C 101.702,241.805 101.369,239.305 96.5,237.5C 87.8812,236.695 79.2146,236.195 70.5,236C 79.5009,235.441 88.5009,234.941 97.5,234.5C 97.3433,233.127 97.51,231.793 98,230.5C 99,232.833 100.667,234.5 103,235.5C 106.745,234.703 110.579,234.203 114.5,234C 115.815,232.605 115.481,231.605 113.5,231C 117.015,226.89 121.348,225.056 126.5,225.5C 128.201,224.198 129.368,222.531 130,220.5C 130.333,221.5 130.667,222.5 131,223.5C 133.614,221.097 136.114,218.597 138.5,216C 144.157,215.501 149.824,215.334 155.5,215.5C 154.004,206.666 157.671,203.333 166.5,205.5C 169.939,205.554 173.106,206.22 176,207.5C 177.667,203.167 179.333,198.833 181,194.5C 182.533,194.944 184.033,195.277 185.5,195.5C 184.359,196.425 184.359,197.259 185.5,198C 183.405,198.556 183.238,199.056 185,199.5C 186.49,198.683 187.99,197.85 189.5,197C 189.167,196.667 188.833,196.333 188.5,196C 190.154,195.392 191.821,194.892 193.5,194.5C 201.139,195.525 208.805,195.691 216.5,195C 222.039,193.893 227.039,191.726 231.5,188.5 Z"/></g>
<g><path style="opacity:1" fill="#741235" d="M 300.5,143.5 C 301.117,143.611 301.617,143.944 302,144.5C 302.972,154.973 303.806,165.306 304.5,175.5C 304.667,202.835 304.5,230.169 304,257.5C 302.28,262.07 300.78,266.736 299.5,271.5C 299.649,272.552 299.483,273.552 299,274.5C 296.624,275.376 295.124,277.042 294.5,279.5C 291.693,282.649 288.36,284.982 284.5,286.5C 286.17,283.998 288.336,281.998 291,280.5C 290.397,275.784 292.231,272.784 296.5,271.5C 296.517,269.435 296.85,267.435 297.5,265.5C 299.116,260.557 300.449,255.39 301.5,250C 300.516,214.52 300.183,179.02 300.5,143.5 Z"/></g>
<g><path style="opacity:1" fill="#c4225f" d="M 287.5,149.5 C 288.167,152.167 288.833,154.833 289.5,157.5C 289.194,191.514 289.527,225.514 290.5,259.5C 289.243,264.786 288.243,270.119 287.5,275.5C 287.5,276.167 287.5,276.833 287.5,277.5C 284.375,280.965 280.708,283.632 276.5,285.5C 280.685,282.477 284.018,278.643 286.5,274C 286.043,273.586 285.709,273.086 285.5,272.5C 286.154,270.885 286.654,269.218 287,267.5C 287.5,228.168 287.667,188.835 287.5,149.5 Z"/></g>
<g><path style="opacity:1" fill="#85173d" d="M 298.5,103.5 C 299.605,116.656 300.272,129.99 300.5,143.5C 300.183,179.02 300.516,214.52 301.5,250C 300.449,255.39 299.116,260.557 297.5,265.5C 298.474,211.516 298.808,157.516 298.5,103.5 Z"/></g>
<g><path style="opacity:1" fill="#e6376d" d="M 175.5,183.5 C 181.235,187.696 187.235,191.363 193.5,194.5C 191.821,194.892 190.154,195.392 188.5,196C 188.833,196.333 189.167,196.667 189.5,197C 187.99,197.85 186.49,198.683 185,199.5C 183.238,199.056 183.405,198.556 185.5,198C 184.359,197.259 184.359,196.425 185.5,195.5C 184.033,195.277 182.533,194.944 181,194.5C 179.333,198.833 177.667,203.167 176,207.5C 173.106,206.22 169.939,205.554 166.5,205.5C 157.671,203.333 154.004,206.666 155.5,215.5C 149.824,215.334 144.157,215.501 138.5,216C 136.114,218.597 133.614,221.097 131,223.5C 130.667,222.5 130.333,221.5 130,220.5C 129.368,222.531 128.201,224.198 126.5,225.5C 121.348,225.056 117.015,226.89 113.5,231C 115.481,231.605 115.815,232.605 114.5,234C 110.579,234.203 106.745,234.703 103,235.5C 100.667,234.5 99,232.833 98,230.5C 97.51,231.793 97.3433,233.127 97.5,234.5C 88.5009,234.941 79.5009,235.441 70.5,236C 79.2146,236.195 87.8812,236.695 96.5,237.5C 101.369,239.305 101.702,241.805 97.5,245C 94.2538,244.683 90.9205,244.517 87.5,244.5C 87.6933,248.007 87.0267,251.34 85.5,254.5C 79.7821,254.331 73.7821,254.664 67.5,255.5C 67.5,258.167 67.5,260.833 67.5,263.5C 64.5,263.5 61.5,263.5 58.5,263.5C 58.5086,265.308 58.0086,266.975 57,268.5C 56.6667,267.833 56.3333,267.167 56,266.5C 53.5,267.667 51.6667,269.5 50.5,272C 46.1294,272.629 41.796,272.463 37.5,271.5C 37.4298,275.368 37.7631,278.868 38.5,282C 36.9419,282.21 35.6085,282.71 34.5,283.5C 31.0563,282.846 27.8897,281.513 25,279.5C 18.6916,280.791 12.5249,280.791 6.5,279.5C 6.5,278.5 6.5,277.5 6.5,276.5C 10.8461,276.666 15.1794,276.499 19.5,276C 22.486,272.559 23.1527,268.725 21.5,264.5C 22.83,257.555 23.83,250.555 24.5,243.5C 25.5,243.167 26.1667,242.5 26.5,241.5C 27.0465,235.621 27.0465,229.454 26.5,223C 27.5,221 28.5,221 29.5,223C 28.6326,226.443 28.2992,229.776 28.5,233C 31.9643,233.817 35.2976,233.483 38.5,232C 35.9201,230.519 35.0868,228.352 36,225.5C 37.0113,226.337 38.1779,226.67 39.5,226.5C 39.5,224.833 39.5,223.167 39.5,221.5C 45.3951,220.946 51.0617,221.612 56.5,223.5C 57.9955,220.355 57.6621,217.522 55.5,215C 57.1368,214.399 58.8034,213.899 60.5,213.5C 64.1778,214.688 67.8445,214.688 71.5,213.5C 72.4978,210.972 73.3311,210.972 74,213.5C 76.4837,210.741 77.6503,211.074 77.5,214.5C 75.4429,220.281 73.1096,225.947 70.5,231.5C 69.9569,231.56 69.6236,231.893 69.5,232.5C 78.3245,233.821 86.9912,233.821 95.5,232.5C 98.0489,225.071 101.382,218.071 105.5,211.5C 106.583,211.461 107.583,211.127 108.5,210.5C 109.192,211.025 109.692,211.692 110,212.5C 110.333,212.167 110.667,211.833 111,211.5C 112.085,212.293 113.252,212.96 114.5,213.5C 116.042,212.253 117.542,212.253 119,213.5C 120.559,211.783 121.392,209.783 121.5,207.5C 126.119,206.873 128.119,204.206 127.5,199.5C 129.5,199.5 131.5,199.5 133.5,199.5C 133.187,196.753 133.52,194.086 134.5,191.5C 135.386,192.325 135.719,193.325 135.5,194.5C 138.167,194.5 140.833,194.5 143.5,194.5C 143.5,193.5 143.5,192.5 143.5,191.5C 146.167,191.5 148.833,191.5 151.5,191.5C 151.238,190.022 151.571,188.689 152.5,187.5C 155.613,185.716 158.113,183.383 160,180.5C 162.429,183.86 165.095,184.193 168,181.5C 169.418,184.001 170.418,183.668 171,180.5C 171.908,182.439 173.408,183.439 175.5,183.5 Z"/></g>
<g><path style="opacity:1" fill="#d32665" d="M 284.5,135.5 C 285.5,135.5 286.5,135.5 287.5,135.5C 287.5,140.167 287.5,144.833 287.5,149.5C 287.667,188.835 287.5,228.168 287,267.5C 286.654,269.218 286.154,270.885 285.5,272.5C 285.709,273.086 286.043,273.586 286.5,274C 284.018,278.643 280.685,282.477 276.5,285.5C 276.167,285.5 275.833,285.5 275.5,285.5C 193.848,286.65 112.181,286.817 30.5,286C 21.7009,284.657 13.0342,284.157 4.5,284.5C 4.06795,283.29 3.40128,282.29 2.5,281.5C 2.5,280.833 2.5,280.167 2.5,279.5C 3.83333,279.5 5.16667,279.5 6.5,279.5C 12.5249,280.791 18.6916,280.791 25,279.5C 27.8897,281.513 31.0563,282.846 34.5,283.5C 85.4938,284.394 136.494,284.727 187.5,284.5C 205.833,284.5 224.167,284.5 242.5,284.5C 249.5,284.5 256.5,284.5 263.5,284.5C 267.582,284.656 271.582,284.156 275.5,283C 278.02,279.721 280.687,276.555 283.5,273.5C 283.833,272.333 284.167,271.167 284.5,270C 285.112,255.671 284.778,241.337 283.5,227C 284.66,210.394 284.66,193.894 283.5,177.5C 283.778,164.25 283.778,150.917 283.5,137.5C 284.338,137.158 284.672,136.492 284.5,135.5 Z"/></g>
<g><path style="opacity:1" fill="#911b43" d="M 301.5,22.5 C 302.167,22.8333 302.833,23.1667 303.5,23.5C 303.833,26.1667 304.167,28.8333 304.5,31.5C 302.697,35.1059 300.864,38.7726 299,42.5C 298.5,62.8306 298.333,83.1639 298.5,103.5C 298.808,157.516 298.474,211.516 297.5,265.5C 296.85,267.435 296.517,269.435 296.5,271.5C 292.231,272.784 290.397,275.784 291,280.5C 288.336,281.998 286.17,283.998 284.5,286.5C 283.391,286.557 282.391,286.89 281.5,287.5C 281.5,286.833 281.5,286.167 281.5,285.5C 282.812,283.521 284.479,281.855 286.5,280.5C 287.386,279.675 287.719,278.675 287.5,277.5C 288.458,277.047 289.292,276.381 290,275.5C 291.995,271.682 293.495,267.682 294.5,263.5C 295.5,228.173 295.833,192.84 295.5,157.5C 295.333,119.499 295.5,81.4985 296,43.5C 298.104,37.9695 299.604,32.3029 300.5,26.5C 301.434,25.4324 301.768,24.099 301.5,22.5 Z"/></g>
<g><path style="opacity:1" fill="#d189a2" d="M 70.5,231.5 C 78.6499,232.493 86.9832,232.826 95.5,232.5C 86.9912,233.821 78.3245,233.821 69.5,232.5C 69.6236,231.893 69.9569,231.56 70.5,231.5 Z"/></g>
<g><path style="opacity:1" fill="#ea5983" d="M 17.5,191.5 C 17.6521,201.862 17.6521,212.362 17.5,223C 17.3866,224.699 18.0532,225.866 19.5,226.5C 19.3189,239.752 18.4855,253.085 17,266.5C 15.8333,268.333 14.3333,269.833 12.5,271C 8.74805,271.24 5.08139,271.74 1.5,272.5C 1.5,270.167 1.5,267.833 1.5,265.5C 5.50639,267.286 9.00639,266.62 12,263.5C 14.3216,253.313 15.4882,242.98 15.5,232.5C 14.7004,219.815 15.3671,207.148 17.5,194.5C 17.5,193.5 17.5,192.5 17.5,191.5 Z"/></g>
<g><path style="opacity:1" fill="#e52474" d="M 263.5,284.5 C 256.5,284.5 249.5,284.5 242.5,284.5C 241.602,283.842 240.602,283.176 239.5,282.5C 242.382,281.119 244.382,278.952 245.5,276C 250.989,272.42 256.989,270.92 263.5,271.5C 263.343,270.127 263.51,268.793 264,267.5C 265.487,266.845 266.653,265.845 267.5,264.5C 272.792,263.505 278.125,263.172 283.5,263.5C 284.01,271.988 280.01,275.654 271.5,274.5C 272.248,276.584 272.248,278.584 271.5,280.5C 268.559,281.613 265.892,282.946 263.5,284.5 Z"/></g>
<g><path style="opacity:1" fill="#a71c4f" d="M 291.5,127.5 C 292.5,127.5 293.5,127.5 294.5,127.5C 294.173,137.681 294.506,147.681 295.5,157.5C 295.833,192.84 295.5,228.173 294.5,263.5C 293.495,267.682 291.995,271.682 290,275.5C 289.292,276.381 288.458,277.047 287.5,277.5C 287.5,276.833 287.5,276.167 287.5,275.5C 288.966,274.653 289.8,273.32 290,271.5C 290.55,267.415 291.383,263.415 292.5,259.5C 291.526,224.181 291.193,188.847 291.5,153.5C 291.5,144.833 291.5,136.167 291.5,127.5 Z"/></g>
<g><path style="opacity:1" fill="#520c24" d="M 305.5,265.5 C 306.307,276.309 303.14,285.643 296,293.5C 295.517,294.448 295.351,295.448 295.5,296.5C 295.5,297.167 295.167,297.5 294.5,297.5C 290.262,299.619 285.929,301.786 281.5,304C 278.211,304.882 274.877,305.548 271.5,306C 192.5,306.667 113.5,306.667 34.5,306C 28.9468,305.203 23.6135,303.703 18.5,301.5C 16.9731,301.573 15.9731,300.906 15.5,299.5C 18.9692,300.87 21.6359,299.87 23.5,296.5C 104.332,297.666 185.332,297.832 266.5,297C 268.962,295.784 271.629,295.118 274.5,295C 276.596,294.263 278.263,293.097 279.5,291.5C 281.473,290.194 283.139,288.527 284.5,286.5C 288.36,284.982 291.693,282.649 294.5,279.5C 295.124,277.042 296.624,275.376 299,274.5C 299.483,273.552 299.649,272.552 299.5,271.5C 301.333,269.416 303.333,267.416 305.5,265.5 Z"/></g>
<g><path style="opacity:1" fill="#edebeb" d="M 306.5,34.5 C 306.833,34.5 307.167,34.5 307.5,34.5C 307.5,125.833 307.5,217.167 307.5,308.5C 204.833,308.5 102.167,308.5 -0.5,308.5C -0.5,296.833 -0.5,285.167 -0.5,273.5C 0.251327,276.246 1.25133,278.913 2.5,281.5C 4.40682,289.336 8.74015,295.336 15.5,299.5C 15.9731,300.906 16.9731,301.573 18.5,301.5C 22.1113,304.768 26.4447,306.601 31.5,307C 112.833,307.667 194.167,307.667 275.5,307C 282.722,305.389 289.055,302.223 294.5,297.5C 295.167,297.5 295.5,297.167 295.5,296.5C 301.049,291.412 304.549,285.078 306,277.5C 306.5,196.501 306.667,115.501 306.5,34.5 Z"/></g>
<g><path style="opacity:1" fill="#5a5555" d="M 294.5,297.5 C 289.055,302.223 282.722,305.389 275.5,307C 194.167,307.667 112.833,307.667 31.5,307C 26.4447,306.601 22.1113,304.768 18.5,301.5C 23.6135,303.703 28.9468,305.203 34.5,306C 113.5,306.667 192.5,306.667 271.5,306C 274.877,305.548 278.211,304.882 281.5,304C 285.929,301.786 290.262,299.619 294.5,297.5 Z"/></g>
<g><path style="opacity:1" fill="#67102e" d="M 279.5,291.5 C 278.263,293.097 276.596,294.263 274.5,295C 271.629,295.118 268.962,295.784 266.5,297C 185.332,297.832 104.332,297.666 23.5,296.5C 103.332,295.667 183.332,295.167 263.5,295C 268.838,293.766 274.171,292.599 279.5,291.5 Z"/></g>
<g><path style="opacity:1" fill="#7b1438" d="M 284.5,286.5 C 283.139,288.527 281.473,290.194 279.5,291.5C 274.171,292.599 268.838,293.766 263.5,295C 183.332,295.167 103.332,295.667 23.5,296.5C 21.6359,299.87 18.9692,300.87 15.5,299.5C 15.5,299.167 15.5,298.833 15.5,298.5C 17.4817,298.005 19.4817,297.505 21.5,297C 19.6992,296.683 19.3659,296.016 20.5,295C 22.5,294.667 24.5,294.333 26.5,294C 106.668,293.833 186.668,293.333 266.5,292.5C 270.044,292.868 273.044,291.868 275.5,289.5C 277.718,289.386 279.718,288.72 281.5,287.5C 282.391,286.89 283.391,286.557 284.5,286.5 Z"/></g>
<g><path style="opacity:1" fill="#87163d" d="M 266.5,292.5 C 186.668,293.333 106.668,293.833 26.5,294C 24.5,294.333 22.5,294.667 20.5,295C 19.3659,296.016 19.6992,296.683 21.5,297C 19.4817,297.505 17.4817,298.005 15.5,298.5C 14.5,298.167 13.8333,297.5 13.5,296.5C 16.7157,295.062 20.049,293.895 23.5,293C 104.499,292.5 185.499,292.333 266.5,292.5 Z"/></g>
<g><path style="opacity:1" fill="#931a45" d="M 275.5,289.5 C 273.044,291.868 270.044,292.868 266.5,292.5C 185.499,292.333 104.499,292.5 23.5,293C 20.049,293.895 16.7157,295.062 13.5,296.5C 12.1667,295.833 11.1667,294.833 10.5,293.5C 13.6289,293.2 16.6289,292.7 19.5,292C 101.5,291.667 183.5,291.333 265.5,291C 268.827,290.39 272.161,289.89 275.5,289.5 Z"/></g>
<g><path style="opacity:1" fill="#a01c4b" d="M 281.5,285.5 C 281.5,286.167 281.5,286.833 281.5,287.5C 279.718,288.72 277.718,289.386 275.5,289.5C 272.161,289.89 268.827,290.39 265.5,291C 183.5,291.333 101.5,291.667 19.5,292C 16.6289,292.7 13.6289,293.2 10.5,293.5C 8.6736,291.853 7.34026,289.853 6.5,287.5C 14.692,286.245 23.0254,286.245 31.5,287.5C 44.6604,288.331 57.9937,288.831 71.5,289C 137.5,289.667 203.5,289.667 269.5,289C 273.518,287.829 277.518,286.663 281.5,285.5 Z"/></g>
<g><path style="opacity:1" fill="#775d62" d="M 2.5,281.5 C 3.40128,282.29 4.06795,283.29 4.5,284.5C 4.93205,285.71 5.59872,286.71 6.5,287.5C 7.34026,289.853 8.6736,291.853 10.5,293.5C 11.1667,294.833 12.1667,295.833 13.5,296.5C 13.8333,297.5 14.5,298.167 15.5,298.5C 15.5,298.833 15.5,299.167 15.5,299.5C 8.74015,295.336 4.40682,289.336 2.5,281.5 Z"/></g>
<g><path style="opacity:1" fill="#b41f56" d="M 287.5,277.5 C 287.719,278.675 287.386,279.675 286.5,280.5C 284.479,281.855 282.812,283.521 281.5,285.5C 277.518,286.663 273.518,287.829 269.5,289C 203.5,289.667 137.5,289.667 71.5,289C 57.9937,288.831 44.6604,288.331 31.5,287.5C 93.1707,287.247 154.837,287.581 216.5,288.5C 234.835,288.048 253.168,287.548 271.5,287C 273.058,286.79 274.391,286.29 275.5,285.5C 275.833,285.5 276.167,285.5 276.5,285.5C 280.708,283.632 284.375,280.965 287.5,277.5 Z"/></g>
<g><path style="opacity:1" fill="#c2215c" d="M 4.5,284.5 C 13.0342,284.157 21.7009,284.657 30.5,286C 112.181,286.817 193.848,286.65 275.5,285.5C 274.391,286.29 273.058,286.79 271.5,287C 253.168,287.548 234.835,288.048 216.5,288.5C 154.837,287.581 93.1707,287.247 31.5,287.5C 23.0254,286.245 14.692,286.245 6.5,287.5C 5.59872,286.71 4.93205,285.71 4.5,284.5 Z"/></g>
</svg>
