<?xml version="1.0" encoding="UTF-8"?>
<!DOCTYPE svg PUBLIC "-//W3C//DTD SVG 1.1//EN" "http://www.w3.org/Graphics/SVG/1.1/DTD/svg11.dtd">
<svg xmlns="http://www.w3.org/2000/svg" version="1.1" width="200px" height="200px" style="shape-rendering:geometricPrecision; text-rendering:geometricPrecision; image-rendering:optimizeQuality; fill-rule:evenodd; clip-rule:evenodd" xmlns:xlink="http://www.w3.org/1999/xlink">
<g><path style="opacity:1" fill="#fefdfd" d="M -0.5,-0.5 C 66.1667,-0.5 132.833,-0.5 199.5,-0.5C 199.5,66.1667 199.5,132.833 199.5,199.5C 132.833,199.5 66.1667,199.5 -0.5,199.5C -0.5,132.833 -0.5,66.1667 -0.5,-0.5 Z"/></g>
<g><path style="opacity:1" fill="#eb392c" d="M 162.5,37.5 C 157.84,38.1667 153.174,38.3334 148.5,38C 149.167,37.6667 149.833,37.3333 150.5,37C 148.386,35.482 146.053,35.1487 143.5,36C 143.957,36.414 144.291,36.914 144.5,37.5C 136.493,37.731 129.159,39.3977 122.5,42.5C 119.674,42.1755 117.174,41.1755 115,39.5C 114,42.1667 113,42.1667 112,39.5C 110.16,40.8331 109.66,40.6665 110.5,39C 107.329,37.963 104.829,38.7964 103,41.5C 101.219,41.2614 99.3856,40.9281 97.5,40.5C 95.9019,42.9734 94.4019,42.9734 93,40.5C 90.6667,41.5 88.3333,42.5 86,43.5C 84.2417,42.5305 83.7417,41.3639 84.5,40C 83.2559,39.5439 82.4226,40.0439 82,41.5C 81.6322,40.09 80.7989,39.09 79.5,38.5C 78.2888,39.2739 78.2888,40.1072 79.5,41C 78.552,41.4828 77.552,41.6495 76.5,41.5C 76.5,40.5 76.5,39.5 76.5,38.5C 65.1618,38.6665 53.8284,38.4999 42.5,38C 42.1667,37.6667 41.8333,37.3333 41.5,37C 46.7937,36.1822 46.7937,35.6822 41.5,35.5C 41.5,35.1667 41.5,34.8333 41.5,34.5C 42.8333,34.5 44.1667,34.5 45.5,34.5C 46.0844,28.6618 47.4178,22.9951 49.5,17.5C 54.5415,19.2678 59.7082,20.6012 65,21.5C 68.2011,17.2848 71.0345,12.7848 73.5,8C 74.5,7.33333 75.5,7.33333 76.5,8C 80.3773,10.4379 84.3773,12.6045 88.5,14.5C 93.1002,11.2401 97.4335,7.57344 101.5,3.5C 105.14,7.80624 109.14,11.8062 113.5,15.5C 118.203,13.1485 122.87,10.8152 127.5,8.5C 130.89,12.2589 133.557,16.5922 135.5,21.5C 136.5,21.8333 137.5,22.1667 138.5,22.5C 143.135,21.3146 147.802,20.3146 152.5,19.5C 153.192,20.0253 153.692,20.6919 154,21.5C 154.737,26.5357 155.571,31.5357 156.5,36.5C 158.735,36.2053 160.735,36.5386 162.5,37.5 Z"/></g>
<g><path style="opacity:1" fill="#ed756c" d="M 41.5,34.5 C 41.5,34.8333 41.5,35.1667 41.5,35.5C 37.1667,35.5 32.8333,35.5 28.5,35.5C 28.5,37.1667 28.5,38.8333 28.5,40.5C 27.5386,38.7354 27.2053,36.7354 27.5,34.5C 32.1667,34.5 36.8333,34.5 41.5,34.5 Z"/></g>
<g><path style="opacity:1" fill="#db2f1f" d="M 41.5,35.5 C 46.7937,35.6822 46.7937,36.1822 41.5,37C 41.8333,37.3333 42.1667,37.6667 42.5,38C 53.8284,38.4999 65.1618,38.6665 76.5,38.5C 76.5,39.5 76.5,40.5 76.5,41.5C 77.552,41.6495 78.552,41.4828 79.5,41C 78.2888,40.1072 78.2888,39.2739 79.5,38.5C 80.7989,39.09 81.6322,40.09 82,41.5C 82.4226,40.0439 83.2559,39.5439 84.5,40C 83.7417,41.3639 84.2417,42.5305 86,43.5C 88.3333,42.5 90.6667,41.5 93,40.5C 94.4019,42.9734 95.9019,42.9734 97.5,40.5C 99.3856,40.9281 101.219,41.2614 103,41.5C 104.829,38.7964 107.329,37.963 110.5,39C 109.66,40.6665 110.16,40.8331 112,39.5C 113,42.1667 114,42.1667 115,39.5C 117.174,41.1755 119.674,42.1755 122.5,42.5C 129.159,39.3977 136.493,37.731 144.5,37.5C 144.291,36.914 143.957,36.414 143.5,36C 146.053,35.1487 148.386,35.482 150.5,37C 149.833,37.3333 149.167,37.6667 148.5,38C 153.174,38.3334 157.84,38.1667 162.5,37.5C 166.167,37.5 169.833,37.5 173.5,37.5C 172.591,43.4781 172.425,49.4781 173,55.5C 177.74,57.4687 182.573,59.1353 187.5,60.5C 186.1,66.0303 184.1,71.3637 181.5,76.5C 186.287,80.1145 190.954,83.9478 195.5,88C 192.302,92.0261 188.968,95.8595 185.5,99.5C 185.5,98.5 185.5,97.5 185.5,96.5C 182.052,94.5943 179.219,95.261 177,98.5C 176.293,96.9194 175.46,95.4194 174.5,94C 174.833,93.6667 175.167,93.3333 175.5,93C 174.251,92.2599 173.251,92.4265 172.5,93.5C 171.957,93.44 171.624,93.1067 171.5,92.5C 172.325,91.6143 173.325,91.281 174.5,91.5C 174.5,90.1667 174.5,88.8333 174.5,87.5C 168.898,87.8143 163.232,87.981 157.5,88C 152.954,92.1907 152.287,97.0241 155.5,102.5C 153.945,104.943 153.278,107.61 153.5,110.5C 151.33,105.748 150.997,100.748 152.5,95.5C 152.167,94.1667 151.833,92.8333 151.5,91.5C 150.702,91.9569 150.369,92.6236 150.5,93.5C 150.167,93.5 149.833,93.5 149.5,93.5C 149.262,90.8517 147.928,89.0183 145.5,88C 140.747,88.0236 136.08,87.8569 131.5,87.5C 131.167,87.5 130.833,87.5 130.5,87.5C 129.698,88.9516 129.198,90.6183 129,92.5C 128.31,91.2617 127.81,91.2617 127.5,92.5C 127.167,92.5 126.833,92.5 126.5,92.5C 126.084,90.2475 124.751,88.7475 122.5,88C 118.833,87.3333 115.167,87.3333 111.5,88C 110.397,89.6804 110.73,91.1804 112.5,92.5C 115.103,91.4383 117.77,91.2716 120.5,92C 121.357,92.6891 122.023,93.5224 122.5,94.5C 119.667,94.5815 116.667,94.7482 113.5,95C 111.973,96.0319 110.64,97.1986 109.5,98.5C 109.216,95.1476 108.05,92.1476 106,89.5C 105.601,89.7284 105.435,90.0618 105.5,90.5C 104.317,89.4955 102.984,88.6622 101.5,88C 96.7469,88.0236 92.0802,87.8569 87.5,87.5C 87.5,98.5 87.5,109.5 87.5,120.5C 86.8334,109.659 86.1667,98.6593 85.5,87.5C 84.8333,97.1667 84.1667,106.833 83.5,116.5C 81.7801,115.045 79.7801,114.212 77.5,114C 76.1667,113.333 76.1667,112.667 77.5,112C 76.9056,111.536 76.2389,111.369 75.5,111.5C 77.9479,110.527 80.6146,110.194 83.5,110.5C 83.5,102.833 83.5,95.1667 83.5,87.5C 81.8333,87.5 80.1667,87.5 78.5,87.5C 78.6662,93.5092 78.4995,99.5092 78,105.5C 75.3333,106.833 72.6667,106.833 70,105.5C 69.5005,99.5092 69.3338,93.5092 69.5,87.5C 67.8333,87.5 66.1667,87.5 64.5,87.5C 64.5,93.1667 64.5,98.8333 64.5,104.5C 63.6728,99.0149 63.1728,93.3482 63,87.5C 62.6481,89.2475 62.1481,90.9142 61.5,92.5C 59.3246,88.7453 55.9913,87.0786 51.5,87.5C 47.7189,86.8272 44.8856,88.1605 43,91.5C 42.3333,96.5 42.3333,101.5 43,106.5C 43.6622,107.984 44.4955,109.317 45.5,110.5C 44.2794,111.028 43.1127,111.695 42,112.5C 39.9592,111.577 37.7925,111.244 35.5,111.5C 37.9701,110.116 39.6367,108.116 40.5,105.5C 39.1779,105.67 38.0113,105.337 37,104.5C 34.396,107.774 31.5627,108.107 28.5,105.5C 27.4001,101.558 27.2334,97.5575 28,93.5C 30.945,90.9475 33.945,90.9475 37,93.5C 41.4213,91.7367 41.2546,89.9033 36.5,88C 26.8033,85.369 22.1366,89.0356 22.5,99C 22.0617,102.993 23.0617,106.493 25.5,109.5C 22.9376,110.971 20.1043,111.638 17,111.5C 13.2338,110.904 9.73381,110.738 6.5,111C 7.87818,112.713 9.54485,114.047 11.5,115C 10.944,115.383 10.6107,115.883 10.5,116.5C 8.24087,114.884 6.24087,113.051 4.5,111C 7.62618,106.37 10.9595,101.87 14.5,97.5C 11.1667,93.1667 7.83333,88.8333 4.5,84.5C 8.69452,80.8127 13.1945,77.4794 18,74.5C 17.0945,68.9527 15.2611,63.6194 12.5,58.5C 17.3473,56.2475 22.3473,54.2475 27.5,52.5C 28.4909,48.5546 28.8242,44.5546 28.5,40.5C 28.5,38.8333 28.5,37.1667 28.5,35.5C 32.8333,35.5 37.1667,35.5 41.5,35.5 Z"/></g>
<g><path style="opacity:1" fill="#fcefee" d="M 35.5,111.5 C 31.838,111.966 28.5046,111.299 25.5,109.5C 23.0617,106.493 22.0617,102.993 22.5,99C 22.1366,89.0356 26.8033,85.369 36.5,88C 41.2546,89.9033 41.4213,91.7367 37,93.5C 33.945,90.9475 30.945,90.9475 28,93.5C 27.2334,97.5575 27.4001,101.558 28.5,105.5C 31.5627,108.107 34.396,107.774 37,104.5C 38.0113,105.337 39.1779,105.67 40.5,105.5C 39.6367,108.116 37.9701,110.116 35.5,111.5 Z"/></g>
<g><path style="opacity:1" fill="#fdefee" d="M 61.5,92.5 C 61.8254,97.5988 61.3254,102.599 60,107.5C 55.8168,111.41 50.9835,112.41 45.5,110.5C 44.4955,109.317 43.6622,107.984 43,106.5C 42.3333,101.5 42.3333,96.5 43,91.5C 44.8856,88.1605 47.7189,86.8272 51.5,87.5C 55.9913,87.0786 59.3246,88.7453 61.5,92.5 Z"/></g>
<g><path style="opacity:1" fill="#fef9f9" d="M 131.5,87.5 C 136.08,87.8569 140.747,88.0236 145.5,88C 147.928,89.0183 149.262,90.8517 149.5,93.5C 149.5,99.1667 149.5,104.833 149.5,110.5C 148.167,110.5 146.833,110.5 145.5,110.5C 145.666,105.156 145.499,99.8229 145,94.5C 142.339,91.0339 139.339,90.7006 136,93.5C 135.501,99.1569 135.334,104.824 135.5,110.5C 134.167,110.5 132.833,110.5 131.5,110.5C 131.5,102.833 131.5,95.1667 131.5,87.5 Z"/></g>
<g><path style="opacity:1" fill="#fdf0ee" d="M 172.5,93.5 C 172.93,96.8621 171.93,99.6954 169.5,102C 165.893,103.647 162.226,104.981 158.5,106C 162.5,106.333 166.5,106.667 170.5,107C 175.988,111.86 175.821,116.36 170,120.5C 168.699,119.902 167.865,118.902 167.5,117.5C 170.926,115.74 171.259,113.574 168.5,111C 163.511,110.501 158.511,110.334 153.5,110.5C 153.278,107.61 153.945,104.943 155.5,102.5C 152.287,97.0241 152.954,92.1907 157.5,88C 163.232,87.981 168.898,87.8143 174.5,87.5C 174.5,88.8333 174.5,90.1667 174.5,91.5C 173.325,91.281 172.325,91.6143 171.5,92.5C 171.624,93.1067 171.957,93.44 172.5,93.5 Z"/></g>
<g><path style="opacity:1" fill="#d62f1c" d="M 159.5,91.5 C 164.993,90.178 167.493,92.178 167,97.5C 159.642,101.527 157.142,99.5272 159.5,91.5 Z"/></g>
<g><path style="opacity:1" fill="#d5311e" d="M 48.5,91.5 C 51.3646,91.0548 53.8646,91.7215 56,93.5C 56.6667,97.1667 56.6667,100.833 56,104.5C 53,107.167 50,107.167 47,104.5C 46.0577,99.9089 46.5577,95.5755 48.5,91.5 Z"/></g>
<g><path style="opacity:1" fill="#eda79f" d="M 130.5,87.5 C 130.833,87.5 131.167,87.5 131.5,87.5C 131.5,95.1667 131.5,102.833 131.5,110.5C 132.833,110.5 134.167,110.5 135.5,110.5C 134.081,111.451 132.415,111.784 130.5,111.5C 130.5,103.5 130.5,95.5 130.5,87.5 Z"/></g>
<g><path style="opacity:1" fill="#ce2410" d="M 64.5,104.5 C 65.9728,110.079 69.6394,112.412 75.5,111.5C 76.2389,111.369 76.9056,111.536 77.5,112C 76.1667,112.667 76.1667,113.333 77.5,114C 79.7801,114.212 81.7801,115.045 83.5,116.5C 84.1667,106.833 84.8333,97.1667 85.5,87.5C 86.1667,98.6593 86.8334,109.659 87.5,120.5C 88.8333,120.5 90.1667,120.5 91.5,120.5C 92.1667,117.167 92.8333,113.833 93.5,110.5C 102.469,112.382 106.802,108.548 106.5,99C 106.394,96.1158 106.061,93.2825 105.5,90.5C 105.435,90.0618 105.601,89.7284 106,89.5C 108.05,92.1476 109.216,95.1476 109.5,98.5C 107.317,109.313 111.65,113.313 122.5,110.5C 123.919,111.451 125.585,111.784 127.5,111.5C 127.5,105.167 127.5,98.8333 127.5,92.5C 127.81,91.2617 128.31,91.2617 129,92.5C 129.198,90.6183 129.698,88.9516 130.5,87.5C 130.5,95.5 130.5,103.5 130.5,111.5C 132.415,111.784 134.081,111.451 135.5,110.5C 135.334,104.824 135.501,99.1569 136,93.5C 139.339,90.7006 142.339,91.0339 145,94.5C 145.499,99.8229 145.666,105.156 145.5,110.5C 146.919,111.451 148.585,111.784 150.5,111.5C 150.5,105.5 150.5,99.5 150.5,93.5C 150.369,92.6236 150.702,91.9569 151.5,91.5C 151.833,92.8333 152.167,94.1667 152.5,95.5C 150.997,100.748 151.33,105.748 153.5,110.5C 158.511,110.334 163.511,110.501 168.5,111C 171.259,113.574 170.926,115.74 167.5,117.5C 167.865,118.902 168.699,119.902 170,120.5C 175.821,116.36 175.988,111.86 170.5,107C 166.5,106.667 162.5,106.333 158.5,106C 162.226,104.981 165.893,103.647 169.5,102C 171.93,99.6954 172.93,96.8621 172.5,93.5C 173.251,92.4265 174.251,92.2599 175.5,93C 175.167,93.3333 174.833,93.6667 174.5,94C 175.46,95.4194 176.293,96.9194 177,98.5C 179.219,95.261 182.052,94.5943 185.5,96.5C 185.5,97.5 185.5,98.5 185.5,99.5C 187.209,105.224 190.209,110.224 194.5,114.5C 189.872,118.156 185.206,121.822 180.5,125.5C 182.793,130.212 184.793,135.045 186.5,140C 186.095,140.945 185.428,141.612 184.5,142C 179.709,143.235 175.042,144.735 170.5,146.5C 170.5,148.167 170.5,149.833 170.5,151.5C 169.596,149.362 168.929,147.029 168.5,144.5C 168.529,142.971 169.196,141.804 170.5,141C 170.167,140.833 169.833,140.667 169.5,140.5C 167.833,141.833 166.167,141.833 164.5,140.5C 162.438,142.725 160.105,143.058 157.5,141.5C 156.11,143.203 154.61,143.87 153,143.5C 152.418,140.332 151.418,139.999 150,142.5C 149.653,140.82 148.653,139.82 147,139.5C 144.667,140.833 142.333,142.167 140,143.5C 139.5,143.333 139,143.167 138.5,143C 140.107,141.951 140.773,140.451 140.5,138.5C 135.181,137.543 134.181,139.043 137.5,143C 135.941,144.756 134.274,144.756 132.5,143C 132.833,142.667 133.167,142.333 133.5,142C 132.552,141.517 131.552,141.351 130.5,141.5C 130.5,142.833 130.5,144.167 130.5,145.5C 129.127,145.657 127.793,145.49 126.5,145C 127.424,144.15 127.424,143.15 126.5,142C 127.022,141.05 127.689,140.216 128.5,139.5C 127.833,139.167 127.167,138.833 126.5,138.5C 125.137,139.198 123.971,139.198 123,138.5C 122.085,139.328 121.419,140.328 121,141.5C 118.888,140.777 116.888,139.777 115,138.5C 114.5,138.667 114,138.833 113.5,139C 114.711,140.113 114.711,141.28 113.5,142.5C 111.659,143.23 109.825,143.897 108,144.5C 106.956,143.377 106.29,142.044 106,140.5C 105.517,141.448 105.351,142.448 105.5,143.5C 104.127,143.657 102.793,143.49 101.5,143C 100.167,142 100.167,141 101.5,140C 100.552,139.517 99.552,139.351 98.5,139.5C 97.8611,141.76 96.6945,143.76 95,145.5C 94.51,144.207 94.3433,142.873 94.5,141.5C 90.1074,141.457 89.7741,141.957 93.5,143C 91.7601,144.827 90.0935,144.66 88.5,142.5C 87.0488,144.559 85.0488,145.559 82.5,145.5C 82.5,144.167 82.5,142.833 82.5,141.5C 81.1667,141.5 79.8333,141.5 78.5,141.5C 78.6198,144.205 77.6198,144.872 75.5,143.5C 74.8333,144.167 74.1667,144.833 73.5,145.5C 72.1934,144.184 70.6934,143.184 69,142.5C 53.7013,143.346 38.5346,143.346 23.5,142.5C 18.9594,141.715 14.9594,139.881 11.5,137C 13.3619,132.11 15.3619,127.276 17.5,122.5C 15.3619,120.265 13.0286,118.265 10.5,116.5C 10.6107,115.883 10.944,115.383 11.5,115C 9.54485,114.047 7.87818,112.713 6.5,111C 9.73381,110.738 13.2338,110.904 17,111.5C 20.1043,111.638 22.9376,110.971 25.5,109.5C 28.5046,111.299 31.838,111.966 35.5,111.5C 37.7925,111.244 39.9592,111.577 42,112.5C 43.1127,111.695 44.2794,111.028 45.5,110.5C 50.9835,112.41 55.8168,111.41 60,107.5C 61.3254,102.599 61.8254,97.5988 61.5,92.5C 62.1481,90.9142 62.6481,89.2475 63,87.5C 63.1728,93.3482 63.6728,99.0149 64.5,104.5 Z"/></g>
<g><path style="opacity:1" fill="#e58378" d="M 93.5,110.5 C 92.8333,113.833 92.1667,117.167 91.5,120.5C 91.1774,116.774 91.5108,113.107 92.5,109.5C 93.1067,109.624 93.44,109.957 93.5,110.5 Z"/></g>
<g><path style="opacity:1" fill="#eb9a92" d="M 126.5,92.5 C 126.833,92.5 127.167,92.5 127.5,92.5C 127.5,98.8333 127.5,105.167 127.5,111.5C 125.585,111.784 123.919,111.451 122.5,110.5C 123.833,110.5 125.167,110.5 126.5,110.5C 126.5,104.5 126.5,98.5 126.5,92.5 Z"/></g>
<g><path style="opacity:1" fill="#eda49d" d="M 149.5,93.5 C 149.833,93.5 150.167,93.5 150.5,93.5C 150.5,99.5 150.5,105.5 150.5,111.5C 148.585,111.784 146.919,111.451 145.5,110.5C 146.833,110.5 148.167,110.5 149.5,110.5C 149.5,104.833 149.5,99.1667 149.5,93.5 Z"/></g>
<g><path style="opacity:1" fill="#fcefed" d="M 75.5,111.5 C 69.6394,112.412 65.9728,110.079 64.5,104.5C 64.5,98.8333 64.5,93.1667 64.5,87.5C 66.1667,87.5 67.8333,87.5 69.5,87.5C 69.3338,93.5092 69.5005,99.5092 70,105.5C 72.6667,106.833 75.3333,106.833 78,105.5C 78.4995,99.5092 78.6662,93.5092 78.5,87.5C 80.1667,87.5 81.8333,87.5 83.5,87.5C 83.5,95.1667 83.5,102.833 83.5,110.5C 80.6146,110.194 77.9479,110.527 75.5,111.5 Z"/></g>
<g><path style="opacity:1" fill="#fdf0ef" d="M 126.5,92.5 C 126.5,98.5 126.5,104.5 126.5,110.5C 125.167,110.5 123.833,110.5 122.5,110.5C 111.65,113.313 107.317,109.313 109.5,98.5C 110.64,97.1986 111.973,96.0319 113.5,95C 116.667,94.7482 119.667,94.5815 122.5,94.5C 122.023,93.5224 121.357,92.6891 120.5,92C 117.77,91.2716 115.103,91.4383 112.5,92.5C 110.73,91.1804 110.397,89.6804 111.5,88C 115.167,87.3333 118.833,87.3333 122.5,88C 124.751,88.7475 126.084,90.2475 126.5,92.5 Z"/></g>
<g><path style="opacity:1" fill="#d63623" d="M 115.5,98.5 C 122.486,98.331 124.153,101.164 120.5,107C 116.229,108.513 113.895,107.013 113.5,102.5C 113.752,100.927 114.418,99.5938 115.5,98.5 Z"/></g>
<g><path style="opacity:1" fill="#fdf2f1" d="M 105.5,90.5 C 106.061,93.2825 106.394,96.1158 106.5,99C 106.802,108.548 102.469,112.382 93.5,110.5C 93.44,109.957 93.1067,109.624 92.5,109.5C 91.5108,113.107 91.1774,116.774 91.5,120.5C 90.1667,120.5 88.8333,120.5 87.5,120.5C 87.5,109.5 87.5,98.5 87.5,87.5C 92.0802,87.8569 96.7469,88.0236 101.5,88C 102.984,88.6622 104.317,89.4955 105.5,90.5 Z"/></g>
<g><path style="opacity:1" fill="#d52f1d" d="M 93.5,91.5 C 96.3646,91.0548 98.8646,91.7215 101,93.5C 101.667,97.1667 101.667,100.833 101,104.5C 98.633,107.932 95.9663,108.265 93,105.5C 92.2266,100.748 92.3932,96.0815 93.5,91.5 Z"/></g>
<g><path style="opacity:1" fill="#c51e08" d="M 170.5,151.5 C 170.5,155.5 170.5,159.5 170.5,163.5C 166.958,163.187 163.625,163.521 160.5,164.5C 158.167,164.5 155.833,164.5 153.5,164.5C 152.778,170.225 151.778,175.892 150.5,181.5C 144.864,180.59 139.364,179.257 134,177.5C 130.833,182.5 127.667,187.5 124.5,192.5C 120.067,189.395 115.401,186.729 110.5,184.5C 105.9,187.76 101.567,191.427 97.5,195.5C 93.8333,191.167 89.8333,187.167 85.5,183.5C 80.5396,185.966 75.7063,188.633 71,191.5C 68.2455,186.992 65.7455,182.326 63.5,177.5C 62.5,177.167 61.5,176.833 60.5,176.5C 55.8645,177.685 51.1978,178.685 46.5,179.5C 45.2115,173.963 43.8781,168.463 42.5,163C 36.8646,162.096 31.198,161.596 25.5,161.5C 26.3635,155.545 26.6968,149.545 26.5,143.5C 25.209,143.737 24.209,143.404 23.5,142.5C 38.5346,143.346 53.7013,143.346 69,142.5C 70.6934,143.184 72.1934,144.184 73.5,145.5C 74.1667,144.833 74.8333,144.167 75.5,143.5C 77.6198,144.872 78.6198,144.205 78.5,141.5C 79.8333,141.5 81.1667,141.5 82.5,141.5C 82.5,142.833 82.5,144.167 82.5,145.5C 85.0488,145.559 87.0488,144.559 88.5,142.5C 90.0935,144.66 91.7601,144.827 93.5,143C 89.7741,141.957 90.1074,141.457 94.5,141.5C 94.3433,142.873 94.51,144.207 95,145.5C 96.6945,143.76 97.8611,141.76 98.5,139.5C 99.552,139.351 100.552,139.517 101.5,140C 100.167,141 100.167,142 101.5,143C 102.793,143.49 104.127,143.657 105.5,143.5C 105.351,142.448 105.517,141.448 106,140.5C 106.29,142.044 106.956,143.377 108,144.5C 109.825,143.897 111.659,143.23 113.5,142.5C 114.711,141.28 114.711,140.113 113.5,139C 114,138.833 114.5,138.667 115,138.5C 116.888,139.777 118.888,140.777 121,141.5C 121.419,140.328 122.085,139.328 123,138.5C 123.971,139.198 125.137,139.198 126.5,138.5C 127.167,138.833 127.833,139.167 128.5,139.5C 127.689,140.216 127.022,141.05 126.5,142C 127.424,143.15 127.424,144.15 126.5,145C 127.793,145.49 129.127,145.657 130.5,145.5C 130.5,144.167 130.5,142.833 130.5,141.5C 131.552,141.351 132.552,141.517 133.5,142C 133.167,142.333 132.833,142.667 132.5,143C 134.274,144.756 135.941,144.756 137.5,143C 134.181,139.043 135.181,137.543 140.5,138.5C 140.773,140.451 140.107,141.951 138.5,143C 139,143.167 139.5,143.333 140,143.5C 142.333,142.167 144.667,140.833 147,139.5C 148.653,139.82 149.653,140.82 150,142.5C 151.418,139.999 152.418,140.332 153,143.5C 154.61,143.87 156.11,143.203 157.5,141.5C 160.105,143.058 162.438,142.725 164.5,140.5C 166.167,141.833 167.833,141.833 169.5,140.5C 169.833,140.667 170.167,140.833 170.5,141C 169.196,141.804 168.529,142.971 168.5,144.5C 168.929,147.029 169.596,149.362 170.5,151.5 Z"/></g>
<g><path style="opacity:1" fill="#dc7364" d="M 170.5,151.5 C 171.485,155.634 171.818,159.968 171.5,164.5C 167.833,164.5 164.167,164.5 160.5,164.5C 163.625,163.521 166.958,163.187 170.5,163.5C 170.5,159.5 170.5,155.5 170.5,151.5 Z"/></g>
</svg>
